<svg width="208" height="255" viewBox="0 0 208 255" fill="none" xmlns="http://www.w3.org/2000/svg">
<path d="M44.329 172.902C45.1058 172.869 52.0866 167.954 59.9612 161.972C67.909 156.101 75.7455 150.304 77.3046 149.277C80.1268 147.26 80.3848 147.409 88.5749 157.182C105.251 176.694 169.355 250.546 171.598 252.74C175.055 256.052 182.98 254.027 192.819 247.39C203.176 240.572 208.315 234.315 207.604 229.355C206.926 225.173 195.002 208.758 164.274 170.083C153.957 157.08 141.403 140.921 136.266 134.087C125.515 119.454 124.646 122.74 142.826 105.983C160.857 89.4827 159.926 90.7346 157.066 86.3913C153.254 80.6003 126.865 65.2484 62.4567 31.186C54.7519 26.9996 40.2279 19.0016 30.3506 13.2124C7.83136 0.101784 2.55444 -1.85177 0.685336 1.61359C-0.211164 3.16158 0.209246 7.19491 1.77302 11.7526C6.45877 26.3871 13.3375 51.8696 17.6641 71.0506C23.0738 94.7865 41.9365 170.965 42.6697 172.079C43.0362 172.635 43.7369 172.972 44.329 172.902ZM35.9904 118.529C31.3733 98.4217 24.4083 68.6859 20.4344 52.4654C16.4604 36.2449 13.396 22.6182 13.4721 22.2489C13.6271 21.0294 54.3148 45.0066 94.2583 69.7931C119.83 85.8428 131.323 93.6014 131.057 94.8942C130.828 96.0023 123.062 102.392 113.851 109.254C104.456 116.078 96.7659 122.098 96.7251 122.764C96.4207 124.241 112.007 146.705 122.655 159.968C127.722 166.21 143.736 185.2 158.21 201.851C172.646 218.687 185.501 233.85 186.601 235.52C188.727 238.75 188.615 238.823 182.604 242.302L176.593 245.78L171.415 239.611C168.55 236.229 152.979 217.427 136.933 197.66C101.313 154.224 83.7165 134.041 80.5417 133.098C78.5482 132.495 75.0606 134.472 61.2864 143.859C52.0783 150.241 44.4673 155.411 44.394 155.299C44.3206 155.188 40.4961 138.709 35.9904 118.529ZM115.69 130.233C117.162 131.498 121.2 136.662 124.534 141.97L130.655 151.509L124.121 143.04C120.561 138.36 116.45 133.085 115.277 131.303C113.039 128.146 113.039 128.146 115.69 130.233ZM132.76 152.039C133.496 152.672 134.375 154.008 134.592 154.823C134.772 155.823 134.182 155.413 133.156 153.853C132.129 152.294 131.986 151.591 132.76 152.039Z" fill="#E0E0E0"/>
</svg>
