<svg width="600" height="600" viewBox="0 0 600 600" fill="none" xmlns="http://www.w3.org/2000/svg">
<g clip-path="url(#clip0_342_67)">
<circle cx="300" cy="300" r="300" fill="black"/>
<path d="M338.504 118C338.262 118 338.064 117.923 337.91 117.769C337.778 117.615 337.712 117.428 337.712 117.208V100.114L332.696 103.975C332.498 104.107 332.3 104.162 332.102 104.14C331.904 104.096 331.728 103.975 331.574 103.777L330.188 101.995C330.056 101.797 330.001 101.588 330.023 101.368C330.067 101.148 330.188 100.972 330.386 100.84L337.778 95.131C337.91 95.021 338.042 94.955 338.174 94.933C338.306 94.911 338.449 94.9 338.603 94.9H341.507C341.727 94.9 341.914 94.977 342.068 95.131C342.222 95.285 342.299 95.472 342.299 95.692V117.208C342.299 117.428 342.222 117.615 342.068 117.769C341.914 117.923 341.727 118 341.507 118H338.504ZM347.509 106.45C347.289 106.45 347.102 106.373 346.948 106.219C346.794 106.065 346.717 105.878 346.717 105.658V102.523C346.717 102.281 346.794 102.083 346.948 101.929C347.102 101.775 347.289 101.698 347.509 101.698H350.776C351.018 101.698 351.216 101.775 351.37 101.929C351.524 102.083 351.601 102.281 351.601 102.523V105.658C351.601 105.878 351.524 106.065 351.37 106.219C351.216 106.373 351.018 106.45 350.776 106.45H347.509ZM347.509 118C347.289 118 347.102 117.923 346.948 117.769C346.794 117.615 346.717 117.428 346.717 117.208V114.073C346.717 113.831 346.794 113.633 346.948 113.479C347.102 113.325 347.289 113.248 347.509 113.248H350.776C351.018 113.248 351.216 113.325 351.37 113.479C351.524 113.633 351.601 113.831 351.601 114.073V117.208C351.601 117.428 351.524 117.615 351.37 117.769C351.216 117.923 351.018 118 350.776 118H347.509ZM355.971 118C355.751 118 355.564 117.923 355.41 117.769C355.256 117.615 355.179 117.428 355.179 117.208V115.525C355.179 115.327 355.223 115.096 355.311 114.832C355.421 114.546 355.652 114.26 356.004 113.974L361.218 108.793C362.67 107.649 363.836 106.681 364.716 105.889C365.618 105.075 366.267 104.338 366.663 103.678C367.081 102.996 367.29 102.325 367.29 101.665C367.29 100.675 367.015 99.872 366.465 99.256C365.937 98.64 365.09 98.332 363.924 98.332C363.154 98.332 362.505 98.497 361.977 98.827C361.449 99.135 361.031 99.553 360.723 100.081C360.437 100.609 360.239 101.192 360.129 101.83C360.085 102.116 359.964 102.314 359.766 102.424C359.568 102.534 359.37 102.589 359.172 102.589H356.235C356.037 102.589 355.872 102.523 355.74 102.391C355.608 102.259 355.542 102.105 355.542 101.929C355.564 100.983 355.762 100.07 356.136 99.19C356.51 98.288 357.049 97.496 357.753 96.814C358.479 96.11 359.359 95.549 360.393 95.131C361.427 94.713 362.593 94.504 363.891 94.504C365.717 94.504 367.224 94.812 368.412 95.428C369.622 96.044 370.524 96.88 371.118 97.936C371.734 98.992 372.042 100.18 372.042 101.5C372.042 102.534 371.844 103.491 371.448 104.371C371.052 105.229 370.48 106.065 369.732 106.879C368.984 107.671 368.082 108.485 367.026 109.321L362.34 114.073H371.745C371.987 114.073 372.174 114.15 372.306 114.304C372.46 114.436 372.537 114.623 372.537 114.865V117.208C372.537 117.428 372.46 117.615 372.306 117.769C372.174 117.923 371.987 118 371.745 118H355.971ZM384.223 118.363C382.331 118.363 380.736 118.055 379.438 117.439C378.14 116.801 377.15 115.976 376.468 114.964C375.808 113.952 375.456 112.874 375.412 111.73C375.39 111.532 375.445 111.378 375.577 111.268C375.731 111.136 375.907 111.07 376.105 111.07H379.174C379.416 111.07 379.614 111.125 379.768 111.235C379.944 111.323 380.076 111.488 380.164 111.73C380.384 112.39 380.692 112.929 381.088 113.347C381.506 113.765 381.979 114.073 382.507 114.271C383.057 114.469 383.629 114.568 384.223 114.568C385.015 114.568 385.73 114.414 386.368 114.106C387.028 113.776 387.556 113.292 387.952 112.654C388.348 112.016 388.546 111.235 388.546 110.311C388.546 109.497 388.359 108.793 387.985 108.199C387.611 107.605 387.094 107.143 386.434 106.813C385.796 106.461 385.059 106.285 384.223 106.285C383.607 106.285 383.101 106.362 382.705 106.516C382.309 106.67 381.968 106.846 381.682 107.044C381.418 107.242 381.176 107.418 380.956 107.572C380.758 107.726 380.527 107.803 380.263 107.803H377.227C377.029 107.803 376.853 107.737 376.699 107.605C376.567 107.451 376.501 107.275 376.501 107.077L377.656 95.791C377.678 95.505 377.777 95.285 377.953 95.131C378.129 94.977 378.338 94.9 378.58 94.9H390.988C391.208 94.9 391.395 94.977 391.549 95.131C391.703 95.285 391.78 95.472 391.78 95.692V97.903C391.78 98.123 391.703 98.31 391.549 98.464C391.395 98.618 391.208 98.695 390.988 98.695H381.451L380.923 104.074C381.319 103.81 381.847 103.557 382.507 103.315C383.167 103.073 384.08 102.952 385.246 102.952C386.302 102.952 387.303 103.128 388.249 103.48C389.217 103.81 390.075 104.305 390.823 104.965C391.571 105.603 392.154 106.384 392.572 107.308C393.012 108.21 393.232 109.244 393.232 110.41C393.232 112.016 392.858 113.413 392.11 114.601C391.362 115.789 390.317 116.713 388.975 117.373C387.633 118.033 386.049 118.363 384.223 118.363ZM397.592 124.27C397.372 124.27 397.185 124.193 397.031 124.039C396.877 123.885 396.8 123.698 396.8 123.478V101.632C396.8 101.412 396.877 101.225 397.031 101.071C397.185 100.917 397.372 100.84 397.592 100.84H400.199C400.441 100.84 400.628 100.917 400.76 101.071C400.914 101.225 400.991 101.412 400.991 101.632V102.952C401.519 102.248 402.212 101.665 403.07 101.203C403.928 100.741 404.995 100.51 406.271 100.51C407.437 100.51 408.449 100.697 409.307 101.071C410.165 101.445 410.88 101.984 411.452 102.688C412.024 103.37 412.464 104.184 412.772 105.13C413.08 106.076 413.256 107.121 413.3 108.265C413.322 108.639 413.333 109.024 413.333 109.42C413.333 109.816 413.322 110.212 413.3 110.608C413.278 111.708 413.113 112.731 412.805 113.677C412.497 114.601 412.046 115.415 411.452 116.119C410.88 116.801 410.165 117.34 409.307 117.736C408.449 118.132 407.437 118.33 406.271 118.33C405.083 118.33 404.071 118.121 403.235 117.703C402.399 117.263 401.717 116.691 401.189 115.987V123.478C401.189 123.698 401.112 123.885 400.958 124.039C400.826 124.193 400.639 124.27 400.397 124.27H397.592ZM405.05 114.799C405.996 114.799 406.733 114.601 407.261 114.205C407.789 113.787 408.163 113.248 408.383 112.588C408.625 111.928 408.768 111.202 408.812 110.41C408.856 109.75 408.856 109.09 408.812 108.43C408.768 107.638 408.625 106.912 408.383 106.252C408.163 105.592 407.789 105.064 407.261 104.668C406.733 104.25 405.996 104.041 405.05 104.041C404.148 104.041 403.411 104.25 402.839 104.668C402.289 105.086 401.882 105.625 401.618 106.285C401.376 106.923 401.233 107.583 401.189 108.265C401.167 108.661 401.156 109.079 401.156 109.519C401.156 109.959 401.167 110.388 401.189 110.806C401.211 111.466 401.365 112.104 401.651 112.72C401.937 113.314 402.355 113.809 402.905 114.205C403.455 114.601 404.17 114.799 405.05 114.799ZM417.83 118C417.61 118 417.423 117.923 417.269 117.769C417.115 117.615 417.038 117.428 417.038 117.208V101.632C417.038 101.412 417.115 101.225 417.269 101.071C417.423 100.917 417.61 100.84 417.83 100.84H420.404C420.624 100.84 420.811 100.917 420.965 101.071C421.119 101.225 421.196 101.412 421.196 101.632V102.754C421.658 102.138 422.274 101.621 423.044 101.203C423.836 100.763 424.771 100.532 425.849 100.51C428.357 100.466 430.106 101.445 431.096 103.447C431.602 102.567 432.328 101.863 433.274 101.335C434.242 100.785 435.309 100.51 436.475 100.51C437.619 100.51 438.653 100.774 439.577 101.302C440.523 101.83 441.26 102.633 441.788 103.711C442.338 104.767 442.613 106.109 442.613 107.737V117.208C442.613 117.428 442.536 117.615 442.382 117.769C442.228 117.923 442.041 118 441.821 118H439.115C438.895 118 438.708 117.923 438.554 117.769C438.4 117.615 438.323 117.428 438.323 117.208V108.001C438.323 107.011 438.18 106.23 437.894 105.658C437.608 105.064 437.223 104.646 436.739 104.404C436.255 104.162 435.716 104.041 435.122 104.041C434.638 104.041 434.154 104.162 433.67 104.404C433.186 104.646 432.79 105.064 432.482 105.658C432.174 106.23 432.02 107.011 432.02 108.001V117.208C432.02 117.428 431.943 117.615 431.789 117.769C431.635 117.923 431.448 118 431.228 118H428.522C428.28 118 428.082 117.923 427.928 117.769C427.796 117.615 427.73 117.428 427.73 117.208V108.001C427.73 107.011 427.576 106.23 427.268 105.658C426.96 105.064 426.564 104.646 426.08 104.404C425.596 104.162 425.079 104.041 424.529 104.041C424.023 104.041 423.528 104.173 423.044 104.437C422.56 104.679 422.164 105.086 421.856 105.658C421.548 106.23 421.394 107.011 421.394 108.001V117.208C421.394 117.428 421.317 117.615 421.163 117.769C421.009 117.923 420.822 118 420.602 118H417.83Z" fill="white"/>
<path d="M127.68 118C127.46 118 127.273 117.923 127.119 117.769C126.965 117.615 126.888 117.428 126.888 117.208V95.725C126.888 95.483 126.965 95.285 127.119 95.131C127.273 94.977 127.46 94.9 127.68 94.9H135.732C137.954 94.9 139.78 95.241 141.21 95.923C142.662 96.605 143.751 97.617 144.477 98.959C145.225 100.301 145.61 101.94 145.632 103.876C145.676 104.844 145.698 105.702 145.698 106.45C145.698 107.198 145.676 108.045 145.632 108.991C145.588 111.037 145.214 112.731 144.51 114.073C143.806 115.393 142.739 116.383 141.309 117.043C139.901 117.681 138.097 118 135.897 118H127.68ZM131.475 114.205H135.732C136.964 114.205 137.965 114.029 138.735 113.677C139.505 113.325 140.066 112.764 140.418 111.994C140.792 111.202 140.99 110.168 141.012 108.892C141.034 108.232 141.045 107.66 141.045 107.176C141.067 106.67 141.067 106.175 141.045 105.691C141.045 105.185 141.034 104.613 141.012 103.975C140.968 102.171 140.517 100.84 139.659 99.982C138.801 99.124 137.437 98.695 135.567 98.695H131.475V114.205ZM157.286 118.33C155.526 118.33 154.041 118.022 152.831 117.406C151.643 116.79 150.73 115.921 150.092 114.799C149.476 113.677 149.124 112.368 149.036 110.872C149.014 110.476 149.003 109.992 149.003 109.42C149.003 108.848 149.014 108.364 149.036 107.968C149.124 106.45 149.487 105.141 150.125 104.041C150.785 102.919 151.709 102.05 152.897 101.434C154.107 100.818 155.57 100.51 157.286 100.51C159.002 100.51 160.454 100.818 161.642 101.434C162.852 102.05 163.776 102.919 164.414 104.041C165.074 105.141 165.448 106.45 165.536 107.968C165.558 108.364 165.569 108.848 165.569 109.42C165.569 109.992 165.558 110.476 165.536 110.872C165.448 112.368 165.085 113.677 164.447 114.799C163.831 115.921 162.918 116.79 161.708 117.406C160.52 118.022 159.046 118.33 157.286 118.33ZM157.286 115.063C158.452 115.063 159.354 114.7 159.992 113.974C160.63 113.226 160.982 112.137 161.048 110.707C161.07 110.377 161.081 109.948 161.081 109.42C161.081 108.892 161.07 108.463 161.048 108.133C160.982 106.725 160.63 105.647 159.992 104.899C159.354 104.151 158.452 103.777 157.286 103.777C156.12 103.777 155.218 104.151 154.58 104.899C153.942 105.647 153.59 106.725 153.524 108.133C153.502 108.463 153.491 108.892 153.491 109.42C153.491 109.948 153.502 110.377 153.524 110.707C153.59 112.137 153.942 113.226 154.58 113.974C155.218 114.7 156.12 115.063 157.286 115.063ZM170.017 118C169.797 118 169.61 117.923 169.456 117.769C169.302 117.615 169.225 117.428 169.225 117.208V101.632C169.225 101.412 169.302 101.225 169.456 101.071C169.61 100.917 169.797 100.84 170.017 100.84H172.723C172.943 100.84 173.13 100.917 173.284 101.071C173.438 101.225 173.515 101.412 173.515 101.632V102.985C174.087 102.281 174.813 101.698 175.693 101.236C176.595 100.752 177.706 100.51 179.026 100.51C180.368 100.51 181.534 100.818 182.524 101.434C183.514 102.028 184.273 102.875 184.801 103.975C185.351 105.075 185.626 106.395 185.626 107.935V117.208C185.626 117.428 185.549 117.615 185.395 117.769C185.241 117.923 185.054 118 184.834 118H181.93C181.71 118 181.523 117.923 181.369 117.769C181.215 117.615 181.138 117.428 181.138 117.208V108.133C181.138 106.857 180.819 105.856 180.181 105.13C179.565 104.404 178.663 104.041 177.475 104.041C176.331 104.041 175.418 104.404 174.736 105.13C174.054 105.856 173.713 106.857 173.713 108.133V117.208C173.713 117.428 173.636 117.615 173.482 117.769C173.328 117.923 173.141 118 172.921 118H170.017ZM197.21 118.33C194.768 118.33 192.832 117.626 191.402 116.218C189.972 114.81 189.202 112.808 189.092 110.212C189.07 109.992 189.059 109.717 189.059 109.387C189.059 109.035 189.07 108.76 189.092 108.562C189.18 106.912 189.554 105.482 190.214 104.272C190.896 103.062 191.831 102.138 193.019 101.5C194.207 100.84 195.604 100.51 197.21 100.51C198.992 100.51 200.488 100.884 201.698 101.632C202.908 102.358 203.821 103.381 204.437 104.701C205.053 105.999 205.361 107.506 205.361 109.222V109.915C205.361 110.135 205.284 110.322 205.13 110.476C204.976 110.63 204.778 110.707 204.536 110.707H193.58C193.58 110.707 193.58 110.74 193.58 110.806C193.58 110.872 193.58 110.927 193.58 110.971C193.602 111.741 193.745 112.456 194.009 113.116C194.295 113.754 194.702 114.271 195.23 114.667C195.78 115.063 196.429 115.261 197.177 115.261C197.793 115.261 198.31 115.173 198.728 114.997C199.146 114.799 199.487 114.579 199.751 114.337C200.015 114.095 200.202 113.897 200.312 113.743C200.51 113.479 200.664 113.325 200.774 113.281C200.906 113.215 201.093 113.182 201.335 113.182H204.173C204.393 113.182 204.569 113.248 204.701 113.38C204.855 113.512 204.921 113.677 204.899 113.875C204.877 114.227 204.69 114.656 204.338 115.162C204.008 115.668 203.524 116.163 202.886 116.647C202.248 117.131 201.445 117.538 200.477 117.868C199.531 118.176 198.442 118.33 197.21 118.33ZM193.58 107.935H200.873V107.836C200.873 106.978 200.73 106.23 200.444 105.592C200.158 104.954 199.74 104.448 199.19 104.074C198.64 103.7 197.98 103.513 197.21 103.513C196.44 103.513 195.78 103.7 195.23 104.074C194.68 104.448 194.262 104.954 193.976 105.592C193.712 106.23 193.58 106.978 193.58 107.836V107.935Z" fill="white"/>
<path d="M241.039 332C240.797 332 240.61 331.934 240.478 331.802C240.346 331.648 240.28 331.461 240.28 331.241V309.692C240.28 309.45 240.346 309.263 240.478 309.131C240.61 308.977 240.797 308.9 241.039 308.9H250.081C251.731 308.9 253.073 309.175 254.107 309.725C255.163 310.253 255.933 310.979 256.417 311.903C256.923 312.827 257.176 313.861 257.176 315.005C257.176 315.907 257.022 316.688 256.714 317.348C256.428 317.986 256.065 318.514 255.625 318.932C255.185 319.328 254.756 319.636 254.338 319.856C255.196 320.274 255.955 320.956 256.615 321.902C257.297 322.848 257.638 323.992 257.638 325.334C257.638 326.544 257.363 327.655 256.813 328.667C256.263 329.679 255.438 330.493 254.338 331.109C253.26 331.703 251.918 332 250.312 332H241.039ZM243.514 329.327H249.883C251.313 329.327 252.413 328.942 253.183 328.172C253.953 327.402 254.338 326.456 254.338 325.334C254.338 324.168 253.953 323.211 253.183 322.463C252.413 321.693 251.313 321.308 249.883 321.308H243.514V329.327ZM243.514 318.668H249.586C250.994 318.668 252.061 318.349 252.787 317.711C253.513 317.051 253.876 316.16 253.876 315.038C253.876 313.916 253.513 313.058 252.787 312.464C252.061 311.87 250.994 311.573 249.586 311.573H243.514V318.668ZM266.679 332.33C265.579 332.33 264.578 332.11 263.676 331.67C262.774 331.23 262.048 330.636 261.498 329.888C260.948 329.14 260.673 328.293 260.673 327.347C260.673 325.829 261.289 324.619 262.521 323.717C263.753 322.815 265.359 322.221 267.339 321.935L272.256 321.242V320.285C272.256 319.229 271.948 318.404 271.332 317.81C270.738 317.216 269.759 316.919 268.395 316.919C267.405 316.919 266.602 317.117 265.986 317.513C265.392 317.909 264.974 318.415 264.732 319.031C264.6 319.361 264.369 319.526 264.039 319.526H262.554C262.312 319.526 262.125 319.46 261.993 319.328C261.883 319.174 261.828 318.998 261.828 318.8C261.828 318.47 261.949 318.063 262.191 317.579C262.455 317.095 262.851 316.622 263.379 316.16C263.907 315.698 264.578 315.313 265.392 315.005C266.228 314.675 267.24 314.51 268.428 314.51C269.748 314.51 270.859 314.686 271.761 315.038C272.663 315.368 273.367 315.819 273.873 316.391C274.401 316.963 274.775 317.612 274.995 318.338C275.237 319.064 275.358 319.801 275.358 320.549V331.241C275.358 331.461 275.281 331.648 275.127 331.802C274.995 331.934 274.819 332 274.599 332H273.081C272.839 332 272.652 331.934 272.52 331.802C272.388 331.648 272.322 331.461 272.322 331.241V329.822C272.036 330.218 271.651 330.614 271.167 331.01C270.683 331.384 270.078 331.703 269.352 331.967C268.626 332.209 267.735 332.33 266.679 332.33ZM267.372 329.855C268.274 329.855 269.099 329.668 269.847 329.294C270.595 328.898 271.178 328.293 271.596 327.479C272.036 326.665 272.256 325.642 272.256 324.41V323.486L268.428 324.047C266.866 324.267 265.689 324.641 264.897 325.169C264.105 325.675 263.709 326.324 263.709 327.116C263.709 327.732 263.885 328.249 264.237 328.667C264.611 329.063 265.073 329.36 265.623 329.558C266.195 329.756 266.778 329.855 267.372 329.855ZM286.64 332C285.408 332 284.407 331.769 283.637 331.307C282.867 330.823 282.306 330.152 281.954 329.294C281.602 328.414 281.426 327.38 281.426 326.192V317.48H278.852C278.632 317.48 278.445 317.414 278.291 317.282C278.159 317.128 278.093 316.941 278.093 316.721V315.599C278.093 315.379 278.159 315.203 278.291 315.071C278.445 314.917 278.632 314.84 278.852 314.84H281.426V309.329C281.426 309.109 281.492 308.933 281.624 308.801C281.778 308.647 281.965 308.57 282.185 308.57H283.736C283.956 308.57 284.132 308.647 284.264 308.801C284.418 308.933 284.495 309.109 284.495 309.329V314.84H288.587C288.807 314.84 288.983 314.917 289.115 315.071C289.269 315.203 289.346 315.379 289.346 315.599V316.721C289.346 316.941 289.269 317.128 289.115 317.282C288.983 317.414 288.807 317.48 288.587 317.48H284.495V325.961C284.495 326.995 284.671 327.809 285.023 328.403C285.375 328.997 286.002 329.294 286.904 329.294H288.917C289.137 329.294 289.313 329.371 289.445 329.525C289.599 329.657 289.676 329.833 289.676 330.053V331.241C289.676 331.461 289.599 331.648 289.445 331.802C289.313 331.934 289.137 332 288.917 332H286.64ZM299.531 332C298.299 332 297.298 331.769 296.528 331.307C295.758 330.823 295.197 330.152 294.845 329.294C294.493 328.414 294.317 327.38 294.317 326.192V317.48H291.743C291.523 317.48 291.336 317.414 291.182 317.282C291.05 317.128 290.984 316.941 290.984 316.721V315.599C290.984 315.379 291.05 315.203 291.182 315.071C291.336 314.917 291.523 314.84 291.743 314.84H294.317V309.329C294.317 309.109 294.383 308.933 294.515 308.801C294.669 308.647 294.856 308.57 295.076 308.57H296.627C296.847 308.57 297.023 308.647 297.155 308.801C297.309 308.933 297.386 309.109 297.386 309.329V314.84H301.478C301.698 314.84 301.874 314.917 302.006 315.071C302.16 315.203 302.237 315.379 302.237 315.599V316.721C302.237 316.941 302.16 317.128 302.006 317.282C301.874 317.414 301.698 317.48 301.478 317.48H297.386V325.961C297.386 326.995 297.562 327.809 297.914 328.403C298.266 328.997 298.893 329.294 299.795 329.294H301.808C302.028 329.294 302.204 329.371 302.336 329.525C302.49 329.657 302.567 329.833 302.567 330.053V331.241C302.567 331.461 302.49 331.648 302.336 331.802C302.204 331.934 302.028 332 301.808 332H299.531ZM312.553 332.33C310.287 332.33 308.483 331.637 307.141 330.251C305.799 328.843 305.062 326.929 304.93 324.509C304.908 324.223 304.897 323.86 304.897 323.42C304.897 322.958 304.908 322.584 304.93 322.298C305.018 320.736 305.381 319.372 306.019 318.206C306.657 317.018 307.526 316.105 308.626 315.467C309.748 314.829 311.057 314.51 312.553 314.51C314.225 314.51 315.622 314.862 316.744 315.566C317.888 316.27 318.757 317.271 319.351 318.569C319.945 319.867 320.242 321.385 320.242 323.123V323.684C320.242 323.926 320.165 324.113 320.011 324.245C319.879 324.377 319.703 324.443 319.483 324.443H308.065C308.065 324.465 308.065 324.509 308.065 324.575C308.065 324.641 308.065 324.696 308.065 324.74C308.109 325.642 308.307 326.489 308.659 327.281C309.011 328.051 309.517 328.678 310.177 329.162C310.837 329.646 311.629 329.888 312.553 329.888C313.345 329.888 314.005 329.767 314.533 329.525C315.061 329.283 315.49 329.019 315.82 328.733C316.15 328.425 316.37 328.194 316.48 328.04C316.678 327.754 316.832 327.589 316.942 327.545C317.052 327.479 317.228 327.446 317.47 327.446H319.054C319.274 327.446 319.45 327.512 319.582 327.644C319.736 327.754 319.802 327.919 319.78 328.139C319.758 328.469 319.582 328.876 319.252 329.36C318.922 329.822 318.449 330.284 317.833 330.746C317.217 331.208 316.469 331.593 315.589 331.901C314.709 332.187 313.697 332.33 312.553 332.33ZM308.065 322.166H317.107V322.067C317.107 321.077 316.92 320.197 316.546 319.427C316.194 318.657 315.677 318.052 314.995 317.612C314.313 317.15 313.499 316.919 312.553 316.919C311.607 316.919 310.793 317.15 310.111 317.612C309.451 318.052 308.945 318.657 308.593 319.427C308.241 320.197 308.065 321.077 308.065 322.067V322.166ZM324.947 332C324.727 332 324.54 331.934 324.386 331.802C324.254 331.648 324.188 331.461 324.188 331.241V315.632C324.188 315.412 324.254 315.225 324.386 315.071C324.54 314.917 324.727 314.84 324.947 314.84H326.465C326.685 314.84 326.872 314.917 327.026 315.071C327.18 315.225 327.257 315.412 327.257 315.632V317.084C327.697 316.336 328.302 315.775 329.072 315.401C329.842 315.027 330.766 314.84 331.844 314.84H333.164C333.384 314.84 333.56 314.917 333.692 315.071C333.824 315.203 333.89 315.379 333.89 315.599V316.952C333.89 317.172 333.824 317.348 333.692 317.48C333.56 317.612 333.384 317.678 333.164 317.678H331.184C329.996 317.678 329.061 318.03 328.379 318.734C327.697 319.416 327.356 320.351 327.356 321.539V331.241C327.356 331.461 327.279 331.648 327.125 331.802C326.971 331.934 326.784 332 326.564 332H324.947ZM339.727 338.27C339.551 338.27 339.397 338.204 339.265 338.072C339.133 337.94 339.067 337.786 339.067 337.61C339.067 337.522 339.078 337.434 339.1 337.346C339.122 337.258 339.166 337.148 339.232 337.016L341.773 330.977L335.47 316.094C335.36 315.83 335.305 315.643 335.305 315.533C335.305 315.335 335.371 315.17 335.503 315.038C335.635 314.906 335.8 314.84 335.998 314.84H337.615C337.835 314.84 338.011 314.895 338.143 315.005C338.275 315.115 338.363 315.247 338.407 315.401L343.423 327.413L348.571 315.401C348.637 315.247 348.725 315.115 348.835 315.005C348.967 314.895 349.154 314.84 349.396 314.84H350.947C351.145 314.84 351.31 314.906 351.442 315.038C351.574 315.17 351.64 315.324 351.64 315.5C351.64 315.61 351.585 315.808 351.475 316.094L342.103 337.709C342.037 337.863 341.938 337.995 341.806 338.105C341.696 338.215 341.52 338.27 341.278 338.27H339.727ZM362.878 332C362.658 332 362.471 331.934 362.317 331.802C362.185 331.648 362.119 331.461 362.119 331.241V315.632C362.119 315.412 362.185 315.225 362.317 315.071C362.471 314.917 362.658 314.84 362.878 314.84H364.396C364.616 314.84 364.803 314.917 364.957 315.071C365.111 315.225 365.188 315.412 365.188 315.632V317.084C365.628 316.336 366.233 315.775 367.003 315.401C367.773 315.027 368.697 314.84 369.775 314.84H371.095C371.315 314.84 371.491 314.917 371.623 315.071C371.755 315.203 371.821 315.379 371.821 315.599V316.952C371.821 317.172 371.755 317.348 371.623 317.48C371.491 317.612 371.315 317.678 371.095 317.678H369.115C367.927 317.678 366.992 318.03 366.31 318.734C365.628 319.416 365.287 320.351 365.287 321.539V331.241C365.287 331.461 365.21 331.648 365.056 331.802C364.902 331.934 364.715 332 364.495 332H362.878ZM381.164 332.33C378.898 332.33 377.094 331.637 375.752 330.251C374.41 328.843 373.673 326.929 373.541 324.509C373.519 324.223 373.508 323.86 373.508 323.42C373.508 322.958 373.519 322.584 373.541 322.298C373.629 320.736 373.992 319.372 374.63 318.206C375.268 317.018 376.137 316.105 377.237 315.467C378.359 314.829 379.668 314.51 381.164 314.51C382.836 314.51 384.233 314.862 385.355 315.566C386.499 316.27 387.368 317.271 387.962 318.569C388.556 319.867 388.853 321.385 388.853 323.123V323.684C388.853 323.926 388.776 324.113 388.622 324.245C388.49 324.377 388.314 324.443 388.094 324.443H376.676C376.676 324.465 376.676 324.509 376.676 324.575C376.676 324.641 376.676 324.696 376.676 324.74C376.72 325.642 376.918 326.489 377.27 327.281C377.622 328.051 378.128 328.678 378.788 329.162C379.448 329.646 380.24 329.888 381.164 329.888C381.956 329.888 382.616 329.767 383.144 329.525C383.672 329.283 384.101 329.019 384.431 328.733C384.761 328.425 384.981 328.194 385.091 328.04C385.289 327.754 385.443 327.589 385.553 327.545C385.663 327.479 385.839 327.446 386.081 327.446H387.665C387.885 327.446 388.061 327.512 388.193 327.644C388.347 327.754 388.413 327.919 388.391 328.139C388.369 328.469 388.193 328.876 387.863 329.36C387.533 329.822 387.06 330.284 386.444 330.746C385.828 331.208 385.08 331.593 384.2 331.901C383.32 332.187 382.308 332.33 381.164 332.33ZM376.676 322.166H385.718V322.067C385.718 321.077 385.531 320.197 385.157 319.427C384.805 318.657 384.288 318.052 383.606 317.612C382.924 317.15 382.11 316.919 381.164 316.919C380.218 316.919 379.404 317.15 378.722 317.612C378.062 318.052 377.556 318.657 377.204 319.427C376.852 320.197 376.676 321.077 376.676 322.067V322.166ZM393.557 332C393.337 332 393.15 331.934 392.996 331.802C392.864 331.648 392.798 331.461 392.798 331.241V315.599C392.798 315.379 392.864 315.203 392.996 315.071C393.15 314.917 393.337 314.84 393.557 314.84H395.042C395.262 314.84 395.438 314.917 395.57 315.071C395.724 315.203 395.801 315.379 395.801 315.599V316.754C396.307 316.072 396.945 315.533 397.715 315.137C398.485 314.719 399.409 314.51 400.487 314.51C402.973 314.488 404.733 315.5 405.767 317.546C406.273 316.622 407.01 315.885 407.978 315.335C408.946 314.785 410.046 314.51 411.278 314.51C412.422 314.51 413.456 314.774 414.38 315.302C415.326 315.83 416.063 316.633 416.591 317.711C417.141 318.767 417.416 320.098 417.416 321.704V331.241C417.416 331.461 417.339 331.648 417.185 331.802C417.053 331.934 416.877 332 416.657 332H415.106C414.886 332 414.699 331.934 414.545 331.802C414.413 331.648 414.347 331.461 414.347 331.241V322.001C414.347 320.769 414.171 319.801 413.819 319.097C413.467 318.393 412.994 317.898 412.4 317.612C411.806 317.326 411.157 317.183 410.453 317.183C409.881 317.183 409.298 317.326 408.704 317.612C408.11 317.898 407.615 318.393 407.219 319.097C406.845 319.801 406.658 320.769 406.658 322.001V331.241C406.658 331.461 406.581 331.648 406.427 331.802C406.295 331.934 406.119 332 405.899 332H404.348C404.128 332 403.941 331.934 403.787 331.802C403.655 331.648 403.589 331.461 403.589 331.241V322.001C403.589 320.769 403.402 319.801 403.028 319.097C402.654 318.393 402.17 317.898 401.576 317.612C400.982 317.326 400.355 317.183 399.695 317.183C399.123 317.183 398.54 317.326 397.946 317.612C397.352 317.898 396.857 318.393 396.461 319.097C396.087 319.801 395.9 320.758 395.9 321.968V331.241C395.9 331.461 395.823 331.648 395.669 331.802C395.537 331.934 395.361 332 395.141 332H393.557ZM426.91 332.33C425.81 332.33 424.809 332.11 423.907 331.67C423.005 331.23 422.279 330.636 421.729 329.888C421.179 329.14 420.904 328.293 420.904 327.347C420.904 325.829 421.52 324.619 422.752 323.717C423.984 322.815 425.59 322.221 427.57 321.935L432.487 321.242V320.285C432.487 319.229 432.179 318.404 431.563 317.81C430.969 317.216 429.99 316.919 428.626 316.919C427.636 316.919 426.833 317.117 426.217 317.513C425.623 317.909 425.205 318.415 424.963 319.031C424.831 319.361 424.6 319.526 424.27 319.526H422.785C422.543 319.526 422.356 319.46 422.224 319.328C422.114 319.174 422.059 318.998 422.059 318.8C422.059 318.47 422.18 318.063 422.422 317.579C422.686 317.095 423.082 316.622 423.61 316.16C424.138 315.698 424.809 315.313 425.623 315.005C426.459 314.675 427.471 314.51 428.659 314.51C429.979 314.51 431.09 314.686 431.992 315.038C432.894 315.368 433.598 315.819 434.104 316.391C434.632 316.963 435.006 317.612 435.226 318.338C435.468 319.064 435.589 319.801 435.589 320.549V331.241C435.589 331.461 435.512 331.648 435.358 331.802C435.226 331.934 435.05 332 434.83 332H433.312C433.07 332 432.883 331.934 432.751 331.802C432.619 331.648 432.553 331.461 432.553 331.241V329.822C432.267 330.218 431.882 330.614 431.398 331.01C430.914 331.384 430.309 331.703 429.583 331.967C428.857 332.209 427.966 332.33 426.91 332.33ZM427.603 329.855C428.505 329.855 429.33 329.668 430.078 329.294C430.826 328.898 431.409 328.293 431.827 327.479C432.267 326.665 432.487 325.642 432.487 324.41V323.486L428.659 324.047C427.097 324.267 425.92 324.641 425.128 325.169C424.336 325.675 423.94 326.324 423.94 327.116C423.94 327.732 424.116 328.249 424.468 328.667C424.842 329.063 425.304 329.36 425.854 329.558C426.426 329.756 427.009 329.855 427.603 329.855ZM441.092 332C440.872 332 440.685 331.934 440.531 331.802C440.399 331.648 440.333 331.461 440.333 331.241V315.599C440.333 315.379 440.399 315.203 440.531 315.071C440.685 314.917 440.872 314.84 441.092 314.84H442.676C442.896 314.84 443.072 314.917 443.204 315.071C443.336 315.203 443.402 315.379 443.402 315.599V331.241C443.402 331.461 443.336 331.648 443.204 331.802C443.072 331.934 442.896 332 442.676 332H441.092ZM440.828 311.639C440.608 311.639 440.421 311.573 440.267 311.441C440.135 311.287 440.069 311.1 440.069 310.88V309.098C440.069 308.878 440.135 308.702 440.267 308.57C440.421 308.416 440.608 308.339 440.828 308.339H442.907C443.127 308.339 443.303 308.416 443.435 308.57C443.589 308.702 443.666 308.878 443.666 309.098V310.88C443.666 311.1 443.589 311.287 443.435 311.441C443.303 311.573 443.127 311.639 442.907 311.639H440.828ZM449.084 332C448.864 332 448.677 331.934 448.523 331.802C448.391 331.648 448.325 331.461 448.325 331.241V315.599C448.325 315.379 448.391 315.203 448.523 315.071C448.677 314.917 448.864 314.84 449.084 314.84H450.635C450.855 314.84 451.031 314.917 451.163 315.071C451.317 315.203 451.394 315.379 451.394 315.599V317.051C451.966 316.303 452.681 315.698 453.539 315.236C454.419 314.752 455.541 314.51 456.905 314.51C458.335 314.51 459.545 314.829 460.535 315.467C461.547 316.083 462.306 316.952 462.812 318.074C463.318 319.174 463.571 320.461 463.571 321.935V331.241C463.571 331.461 463.505 331.648 463.373 331.802C463.241 331.934 463.065 332 462.845 332H461.195C460.975 332 460.788 331.934 460.634 331.802C460.502 331.648 460.436 331.461 460.436 331.241V322.1C460.436 320.56 460.062 319.361 459.314 318.503C458.566 317.623 457.466 317.183 456.014 317.183C454.65 317.183 453.55 317.623 452.714 318.503C451.9 319.361 451.493 320.56 451.493 322.1V331.241C451.493 331.461 451.416 331.648 451.262 331.802C451.13 331.934 450.954 332 450.734 332H449.084ZM469.097 332C468.877 332 468.69 331.934 468.536 331.802C468.404 331.648 468.338 331.461 468.338 331.241V315.599C468.338 315.379 468.404 315.203 468.536 315.071C468.69 314.917 468.877 314.84 469.097 314.84H470.681C470.901 314.84 471.077 314.917 471.209 315.071C471.341 315.203 471.407 315.379 471.407 315.599V331.241C471.407 331.461 471.341 331.648 471.209 331.802C471.077 331.934 470.901 332 470.681 332H469.097ZM468.833 311.639C468.613 311.639 468.426 311.573 468.272 311.441C468.14 311.287 468.074 311.1 468.074 310.88V309.098C468.074 308.878 468.14 308.702 468.272 308.57C468.426 308.416 468.613 308.339 468.833 308.339H470.912C471.132 308.339 471.308 308.416 471.44 308.57C471.594 308.702 471.671 308.878 471.671 309.098V310.88C471.671 311.1 471.594 311.287 471.44 311.441C471.308 311.573 471.132 311.639 470.912 311.639H468.833ZM477.089 332C476.869 332 476.682 331.934 476.528 331.802C476.396 331.648 476.33 331.461 476.33 331.241V315.599C476.33 315.379 476.396 315.203 476.528 315.071C476.682 314.917 476.869 314.84 477.089 314.84H478.64C478.86 314.84 479.036 314.917 479.168 315.071C479.322 315.203 479.399 315.379 479.399 315.599V317.051C479.971 316.303 480.686 315.698 481.544 315.236C482.424 314.752 483.546 314.51 484.91 314.51C486.34 314.51 487.55 314.829 488.54 315.467C489.552 316.083 490.311 316.952 490.817 318.074C491.323 319.174 491.576 320.461 491.576 321.935V331.241C491.576 331.461 491.51 331.648 491.378 331.802C491.246 331.934 491.07 332 490.85 332H489.2C488.98 332 488.793 331.934 488.639 331.802C488.507 331.648 488.441 331.461 488.441 331.241V322.1C488.441 320.56 488.067 319.361 487.319 318.503C486.571 317.623 485.471 317.183 484.019 317.183C482.655 317.183 481.555 317.623 480.719 318.503C479.905 319.361 479.498 320.56 479.498 322.1V331.241C479.498 331.461 479.421 331.648 479.267 331.802C479.135 331.934 478.959 332 478.739 332H477.089ZM503.371 339.26C501.875 339.26 500.643 339.062 499.675 338.666C498.729 338.27 497.981 337.786 497.431 337.214C496.903 336.664 496.518 336.103 496.276 335.531C496.056 334.981 495.935 334.541 495.913 334.211C495.891 333.991 495.957 333.804 496.111 333.65C496.287 333.496 496.474 333.419 496.672 333.419H498.256C498.454 333.419 498.619 333.463 498.751 333.551C498.883 333.639 498.993 333.826 499.081 334.112C499.213 334.442 499.411 334.805 499.675 335.201C499.939 335.619 500.346 335.971 500.896 336.257C501.446 336.565 502.216 336.719 503.206 336.719C504.24 336.719 505.109 336.576 505.813 336.29C506.517 336.026 507.045 335.542 507.397 334.838C507.771 334.156 507.958 333.21 507.958 332V329.756C507.43 330.438 506.737 331.01 505.879 331.472C505.021 331.912 503.943 332.132 502.645 332.132C501.413 332.132 500.357 331.923 499.477 331.505C498.597 331.065 497.871 330.482 497.299 329.756C496.749 329.008 496.331 328.161 496.045 327.215C495.781 326.269 495.627 325.279 495.583 324.245C495.561 323.629 495.561 323.024 495.583 322.43C495.627 321.396 495.781 320.406 496.045 319.46C496.331 318.514 496.749 317.667 497.299 316.919C497.871 316.171 498.597 315.588 499.477 315.17C500.357 314.73 501.413 314.51 502.645 314.51C503.965 314.51 505.054 314.763 505.912 315.269C506.792 315.753 507.507 316.347 508.057 317.051V315.632C508.057 315.412 508.123 315.225 508.255 315.071C508.409 314.917 508.596 314.84 508.816 314.84H510.334C510.554 314.84 510.741 314.917 510.895 315.071C511.049 315.225 511.126 315.412 511.126 315.632V331.637C511.126 333.111 510.873 334.42 510.367 335.564C509.883 336.708 509.069 337.61 507.925 338.27C506.803 338.93 505.285 339.26 503.371 339.26ZM503.305 329.492C504.405 329.492 505.285 329.239 505.945 328.733C506.627 328.227 507.122 327.589 507.43 326.819C507.76 326.049 507.936 325.268 507.958 324.476C507.98 324.168 507.991 323.794 507.991 323.354C507.991 322.892 507.98 322.507 507.958 322.199C507.936 321.407 507.76 320.626 507.43 319.856C507.122 319.086 506.627 318.448 505.945 317.942C505.285 317.436 504.405 317.183 503.305 317.183C502.205 317.183 501.325 317.436 500.665 317.942C500.005 318.426 499.532 319.075 499.246 319.889C498.96 320.681 498.795 321.539 498.751 322.463C498.729 323.035 498.729 323.618 498.751 324.212C498.795 325.136 498.96 326.005 499.246 326.819C499.532 327.611 500.005 328.26 500.665 328.766C501.325 329.25 502.205 329.492 503.305 329.492Z" fill="white"/>
<path d="M265.088 267C264.354 267 263.754 266.767 263.288 266.3C262.888 265.833 262.688 265.267 262.688 264.6V212.8L247.488 224.5C246.888 224.9 246.288 225.067 245.688 225C245.088 224.867 244.554 224.5 244.088 223.9L239.888 218.5C239.488 217.9 239.321 217.267 239.388 216.6C239.521 215.933 239.888 215.4 240.488 215L262.888 197.7C263.288 197.367 263.688 197.167 264.088 197.1C264.488 197.033 264.921 197 265.388 197H274.188C274.854 197 275.421 197.233 275.888 197.7C276.354 198.167 276.588 198.733 276.588 199.4V264.6C276.588 265.267 276.354 265.833 275.888 266.3C275.421 266.767 274.854 267 274.188 267H265.088ZM316.477 268C311.743 268 307.71 267.3 304.377 265.9C301.043 264.5 298.31 262.567 296.177 260.1C294.043 257.633 292.443 254.8 291.377 251.6C290.31 248.333 289.677 244.867 289.477 241.2C289.41 239.4 289.343 237.433 289.277 235.3C289.277 233.1 289.277 230.9 289.277 228.7C289.343 226.5 289.41 224.467 289.477 222.6C289.61 218.933 290.243 215.5 291.377 212.3C292.51 209.033 294.143 206.2 296.277 203.8C298.477 201.4 301.243 199.5 304.577 198.1C307.91 196.7 311.877 196 316.477 196C321.143 196 325.143 196.7 328.477 198.1C331.81 199.5 334.543 201.4 336.677 203.8C338.877 206.2 340.51 209.033 341.577 212.3C342.71 215.5 343.343 218.933 343.477 222.6C343.61 224.467 343.677 226.5 343.677 228.7C343.677 230.9 343.677 233.1 343.677 235.3C343.677 237.433 343.61 239.4 343.477 241.2C343.343 244.867 342.743 248.333 341.677 251.6C340.61 254.8 339.01 257.633 336.877 260.1C334.743 262.567 331.977 264.5 328.577 265.9C325.243 267.3 321.21 268 316.477 268ZM316.477 256.5C320.81 256.5 323.977 255.1 325.977 252.3C328.043 249.433 329.11 245.567 329.177 240.7C329.31 238.767 329.377 236.833 329.377 234.9C329.377 232.9 329.377 230.9 329.377 228.9C329.377 226.9 329.31 225 329.177 223.2C329.11 218.467 328.043 214.667 325.977 211.8C323.977 208.867 320.81 207.4 316.477 207.4C312.21 207.4 309.043 208.867 306.977 211.8C304.977 214.667 303.91 218.467 303.777 223.2C303.777 225 303.743 226.9 303.677 228.9C303.677 230.9 303.677 232.9 303.677 234.9C303.743 236.833 303.777 238.767 303.777 240.7C303.91 245.567 305.01 249.433 307.077 252.3C309.143 255.1 312.277 256.5 316.477 256.5ZM382.199 268C377.466 268 373.433 267.3 370.099 265.9C366.766 264.5 364.033 262.567 361.899 260.1C359.766 257.633 358.166 254.8 357.099 251.6C356.033 248.333 355.399 244.867 355.199 241.2C355.133 239.4 355.066 237.433 354.999 235.3C354.999 233.1 354.999 230.9 354.999 228.7C355.066 226.5 355.133 224.467 355.199 222.6C355.333 218.933 355.966 215.5 357.099 212.3C358.233 209.033 359.866 206.2 361.999 203.8C364.199 201.4 366.966 199.5 370.299 198.1C373.633 196.7 377.599 196 382.199 196C386.866 196 390.866 196.7 394.199 198.1C397.533 199.5 400.266 201.4 402.399 203.8C404.599 206.2 406.233 209.033 407.299 212.3C408.433 215.5 409.066 218.933 409.199 222.6C409.333 224.467 409.399 226.5 409.399 228.7C409.399 230.9 409.399 233.1 409.399 235.3C409.399 237.433 409.333 239.4 409.199 241.2C409.066 244.867 408.466 248.333 407.399 251.6C406.333 254.8 404.733 257.633 402.599 260.1C400.466 262.567 397.699 264.5 394.299 265.9C390.966 267.3 386.933 268 382.199 268ZM382.199 256.5C386.533 256.5 389.699 255.1 391.699 252.3C393.766 249.433 394.833 245.567 394.899 240.7C395.033 238.767 395.099 236.833 395.099 234.9C395.099 232.9 395.099 230.9 395.099 228.9C395.099 226.9 395.033 225 394.899 223.2C394.833 218.467 393.766 214.667 391.699 211.8C389.699 208.867 386.533 207.4 382.199 207.4C377.933 207.4 374.766 208.867 372.699 211.8C370.699 214.667 369.633 218.467 369.499 223.2C369.499 225 369.466 226.9 369.399 228.9C369.399 230.9 369.399 232.9 369.399 234.9C369.466 236.833 369.499 238.767 369.499 240.7C369.633 245.567 370.733 249.433 372.799 252.3C374.866 255.1 377.999 256.5 382.199 256.5ZM418.752 267C418.29 267 418.059 266.78 418.059 266.34C418.059 266.208 418.103 266.087 418.191 265.977L434.46 244.527C434.614 244.329 434.768 244.175 434.922 244.065C435.076 243.955 435.296 243.9 435.582 243.9H437.331C437.793 243.9 438.024 244.12 438.024 244.56C438.024 244.692 437.98 244.813 437.892 244.923L421.623 266.373C421.469 266.571 421.315 266.725 421.161 266.835C421.029 266.945 420.809 267 420.501 267H418.752ZM434.625 267.198C433.151 267.198 431.985 266.791 431.127 265.977C430.269 265.163 429.796 264.096 429.708 262.776C429.686 262.204 429.675 261.709 429.675 261.291C429.675 260.873 429.686 260.356 429.708 259.74C429.796 258.42 430.247 257.353 431.061 256.539C431.897 255.725 433.085 255.318 434.625 255.318C436.187 255.318 437.375 255.725 438.189 256.539C439.025 257.353 439.476 258.42 439.542 259.74C439.586 260.356 439.608 260.873 439.608 261.291C439.608 261.709 439.586 262.204 439.542 262.776C439.476 264.096 439.003 265.163 438.123 265.977C437.265 266.791 436.099 267.198 434.625 267.198ZM434.625 264.624C435.109 264.624 435.483 264.525 435.747 264.327C436.033 264.129 436.242 263.876 436.374 263.568C436.506 263.26 436.572 262.952 436.572 262.644C436.616 262.094 436.638 261.632 436.638 261.258C436.638 260.862 436.616 260.411 436.572 259.905C436.55 259.399 436.396 258.937 436.11 258.519C435.824 258.079 435.329 257.859 434.625 257.859C433.943 257.859 433.459 258.079 433.173 258.519C432.887 258.937 432.722 259.399 432.678 259.905C432.656 260.411 432.645 260.862 432.645 261.258C432.645 261.632 432.656 262.094 432.678 262.644C432.722 262.952 432.799 263.26 432.909 263.568C433.041 263.876 433.239 264.129 433.503 264.327C433.789 264.525 434.163 264.624 434.625 264.624ZM421.458 255.516C419.984 255.516 418.818 255.131 417.96 254.361C417.102 253.591 416.629 252.546 416.541 251.226C416.519 250.654 416.508 250.159 416.508 249.741C416.508 249.301 416.519 248.773 416.541 248.157C416.629 246.837 417.08 245.77 417.894 244.956C418.73 244.142 419.918 243.735 421.458 243.735C423.02 243.735 424.208 244.142 425.022 244.956C425.858 245.77 426.309 246.837 426.375 248.157C426.419 248.773 426.441 249.301 426.441 249.741C426.441 250.159 426.419 250.654 426.375 251.226C426.309 252.546 425.836 253.591 424.956 254.361C424.098 255.131 422.932 255.516 421.458 255.516ZM421.458 253.074C421.942 253.074 422.316 252.975 422.58 252.777C422.866 252.579 423.075 252.326 423.207 252.018C423.339 251.71 423.405 251.391 423.405 251.061C423.449 250.511 423.471 250.049 423.471 249.675C423.471 249.279 423.449 248.828 423.405 248.322C423.383 247.816 423.229 247.354 422.943 246.936C422.657 246.518 422.162 246.309 421.458 246.309C420.776 246.309 420.292 246.518 420.006 246.936C419.72 247.354 419.566 247.816 419.544 248.322C419.522 248.828 419.511 249.279 419.511 249.675C419.511 250.049 419.522 250.511 419.544 251.061C419.566 251.391 419.632 251.71 419.742 252.018C419.874 252.326 420.072 252.579 420.336 252.777C420.622 252.975 420.996 253.074 421.458 253.074Z" fill="#F2F2F2"/>
<circle cx="156" cy="255" r="60" fill="#2CE22F"/>
<circle cx="155.4" cy="254.4" r="45" fill="black"/>
<circle cx="155.4" cy="254.4" r="45" fill="black"/>
<circle cx="155.4" cy="254.4" r="45" fill="black"/>
<circle cx="155.4" cy="254.4" r="45" fill="black"/>
<circle cx="186" cy="452" r="35" fill="#2FA931"/>
<rect opacity="0.9" x="142" y="402" width="315" height="100" rx="50" fill="#2CE22F" fill-opacity="0.4"/>
<path d="M239.227 461C239.014 461 238.85 460.942 238.734 460.826C238.618 460.691 238.56 460.526 238.56 460.333V441.396C238.56 441.183 238.618 441.019 238.734 440.903C238.85 440.768 239.014 440.7 239.227 440.7H246.593C248.023 440.7 249.261 440.932 250.305 441.396C251.368 441.86 252.19 442.556 252.77 443.484C253.35 444.393 253.64 445.533 253.64 446.906C253.64 448.279 253.35 449.419 252.77 450.328C252.19 451.237 251.368 451.923 250.305 452.387C249.261 452.851 248.023 453.083 246.593 453.083H241.46V460.333C241.46 460.526 241.392 460.691 241.257 460.826C241.141 460.942 240.976 461 240.764 461H239.227ZM241.431 450.647H246.448C247.878 450.647 248.951 450.328 249.667 449.69C250.382 449.052 250.74 448.124 250.74 446.906C250.74 445.707 250.392 444.779 249.696 444.122C249 443.465 247.917 443.136 246.448 443.136H241.431V450.647ZM262.768 461.29C261.298 461.29 260.071 461.01 259.085 460.449C258.099 459.888 257.345 459.115 256.823 458.129C256.301 457.124 256.011 455.983 255.953 454.707C255.933 454.378 255.924 453.963 255.924 453.46C255.924 452.938 255.933 452.522 255.953 452.213C256.011 450.918 256.301 449.777 256.823 448.791C257.364 447.805 258.128 447.032 259.114 446.471C260.1 445.91 261.318 445.63 262.768 445.63C264.218 445.63 265.436 445.91 266.422 446.471C267.408 447.032 268.162 447.805 268.684 448.791C269.225 449.777 269.525 450.918 269.583 452.213C269.602 452.522 269.612 452.938 269.612 453.46C269.612 453.963 269.602 454.378 269.583 454.707C269.525 455.983 269.235 457.124 268.713 458.129C268.191 459.115 267.437 459.888 266.451 460.449C265.465 461.01 264.237 461.29 262.768 461.29ZM262.768 459.057C263.966 459.057 264.923 458.68 265.639 457.926C266.354 457.153 266.741 456.031 266.799 454.562C266.818 454.272 266.828 453.905 266.828 453.46C266.828 453.015 266.818 452.648 266.799 452.358C266.741 450.889 266.354 449.777 265.639 449.023C264.923 448.25 263.966 447.863 262.768 447.863C261.569 447.863 260.602 448.25 259.868 449.023C259.152 449.777 258.775 450.889 258.737 452.358C258.717 452.648 258.708 453.015 258.708 453.46C258.708 453.905 258.717 454.272 258.737 454.562C258.775 456.031 259.152 457.153 259.868 457.926C260.602 458.68 261.569 459.057 262.768 459.057ZM276.849 461C276.597 461 276.404 460.942 276.269 460.826C276.133 460.691 276.017 460.507 275.921 460.275L271.803 446.819C271.764 446.722 271.745 446.626 271.745 446.529C271.745 446.355 271.803 446.21 271.919 446.094C272.054 445.978 272.199 445.92 272.354 445.92H273.63C273.842 445.92 274.007 445.978 274.123 446.094C274.239 446.21 274.316 446.316 274.355 446.413L277.574 457.346L281.025 446.529C281.063 446.394 281.141 446.258 281.257 446.123C281.392 445.988 281.585 445.92 281.837 445.92H282.823C283.074 445.92 283.267 445.988 283.403 446.123C283.538 446.258 283.615 446.394 283.635 446.529L287.086 457.346L290.305 446.413C290.324 446.316 290.392 446.21 290.508 446.094C290.624 445.978 290.788 445.92 291.001 445.92H292.277C292.451 445.92 292.596 445.978 292.712 446.094C292.828 446.21 292.886 446.355 292.886 446.529C292.886 446.626 292.866 446.722 292.828 446.819L288.71 460.275C288.652 460.507 288.545 460.691 288.391 460.826C288.255 460.942 288.052 461 287.782 461H286.651C286.399 461 286.187 460.942 286.013 460.826C285.858 460.691 285.752 460.507 285.694 460.275L282.33 449.893L278.966 460.275C278.888 460.507 278.772 460.691 278.618 460.826C278.463 460.942 278.25 461 277.98 461H276.849ZM301.704 461.29C299.713 461.29 298.128 460.681 296.948 459.463C295.769 458.226 295.121 456.544 295.005 454.417C294.986 454.166 294.976 453.847 294.976 453.46C294.976 453.054 294.986 452.725 295.005 452.474C295.083 451.101 295.402 449.903 295.962 448.878C296.523 447.834 297.287 447.032 298.253 446.471C299.239 445.91 300.39 445.63 301.704 445.63C303.174 445.63 304.401 445.939 305.387 446.558C306.393 447.177 307.156 448.056 307.678 449.197C308.2 450.338 308.461 451.672 308.461 453.199V453.692C308.461 453.905 308.394 454.069 308.258 454.185C308.142 454.301 307.988 454.359 307.794 454.359H297.76C297.76 454.378 297.76 454.417 297.76 454.475C297.76 454.533 297.76 454.581 297.76 454.62C297.799 455.413 297.973 456.157 298.282 456.853C298.592 457.53 299.036 458.081 299.616 458.506C300.196 458.931 300.892 459.144 301.704 459.144C302.4 459.144 302.98 459.038 303.444 458.825C303.908 458.612 304.285 458.38 304.575 458.129C304.865 457.858 305.059 457.655 305.155 457.52C305.329 457.269 305.465 457.124 305.561 457.085C305.658 457.027 305.813 456.998 306.025 456.998H307.417C307.611 456.998 307.765 457.056 307.881 457.172C308.017 457.269 308.075 457.414 308.055 457.607C308.036 457.897 307.881 458.255 307.591 458.68C307.301 459.086 306.886 459.492 306.344 459.898C305.803 460.304 305.146 460.642 304.372 460.913C303.599 461.164 302.71 461.29 301.704 461.29ZM297.76 452.358H305.706V452.271C305.706 451.401 305.542 450.628 305.213 449.951C304.904 449.274 304.45 448.743 303.85 448.356C303.251 447.95 302.536 447.747 301.704 447.747C300.873 447.747 300.158 447.95 299.558 448.356C298.978 448.743 298.534 449.274 298.224 449.951C297.915 450.628 297.76 451.401 297.76 452.271V452.358ZM312.596 461C312.402 461 312.238 460.942 312.103 460.826C311.987 460.691 311.929 460.526 311.929 460.333V446.616C311.929 446.423 311.987 446.258 312.103 446.123C312.238 445.988 312.402 445.92 312.596 445.92H313.93C314.123 445.92 314.287 445.988 314.423 446.123C314.558 446.258 314.626 446.423 314.626 446.616V447.892C315.012 447.235 315.544 446.742 316.221 446.413C316.897 446.084 317.709 445.92 318.657 445.92H319.817C320.01 445.92 320.165 445.988 320.281 446.123C320.397 446.239 320.455 446.394 320.455 446.587V447.776C320.455 447.969 320.397 448.124 320.281 448.24C320.165 448.356 320.01 448.414 319.817 448.414H318.077C317.033 448.414 316.211 448.723 315.612 449.342C315.012 449.941 314.713 450.763 314.713 451.807V460.333C314.713 460.526 314.645 460.691 314.51 460.826C314.374 460.942 314.21 461 314.017 461H312.596ZM330.041 461C329.848 461 329.683 460.942 329.548 460.826C329.432 460.691 329.374 460.526 329.374 460.333V446.616C329.374 446.423 329.432 446.258 329.548 446.123C329.683 445.988 329.848 445.92 330.041 445.92H331.375C331.568 445.92 331.733 445.988 331.868 446.123C332.003 446.258 332.071 446.423 332.071 446.616V447.892C332.458 447.235 332.989 446.742 333.666 446.413C334.343 446.084 335.155 445.92 336.102 445.92H337.262C337.455 445.92 337.61 445.988 337.726 446.123C337.842 446.239 337.9 446.394 337.9 446.587V447.776C337.9 447.969 337.842 448.124 337.726 448.24C337.61 448.356 337.455 448.414 337.262 448.414H335.522C334.478 448.414 333.656 448.723 333.057 449.342C332.458 449.941 332.158 450.763 332.158 451.807V460.333C332.158 460.526 332.09 460.691 331.955 460.826C331.82 460.942 331.655 461 331.462 461H330.041ZM346.11 461.29C344.119 461.29 342.534 460.681 341.354 459.463C340.175 458.226 339.527 456.544 339.411 454.417C339.392 454.166 339.382 453.847 339.382 453.46C339.382 453.054 339.392 452.725 339.411 452.474C339.489 451.101 339.808 449.903 340.368 448.878C340.929 447.834 341.693 447.032 342.659 446.471C343.645 445.91 344.796 445.63 346.11 445.63C347.58 445.63 348.807 445.939 349.793 446.558C350.799 447.177 351.562 448.056 352.084 449.197C352.606 450.338 352.867 451.672 352.867 453.199V453.692C352.867 453.905 352.8 454.069 352.664 454.185C352.548 454.301 352.394 454.359 352.2 454.359H342.166C342.166 454.378 342.166 454.417 342.166 454.475C342.166 454.533 342.166 454.581 342.166 454.62C342.205 455.413 342.379 456.157 342.688 456.853C342.998 457.53 343.442 458.081 344.022 458.506C344.602 458.931 345.298 459.144 346.11 459.144C346.806 459.144 347.386 459.038 347.85 458.825C348.314 458.612 348.691 458.38 348.981 458.129C349.271 457.858 349.465 457.655 349.561 457.52C349.735 457.269 349.871 457.124 349.967 457.085C350.064 457.027 350.219 456.998 350.431 456.998H351.823C352.017 456.998 352.171 457.056 352.287 457.172C352.423 457.269 352.481 457.414 352.461 457.607C352.442 457.897 352.287 458.255 351.997 458.68C351.707 459.086 351.292 459.492 350.75 459.898C350.209 460.304 349.552 460.642 348.778 460.913C348.005 461.164 347.116 461.29 346.11 461.29ZM342.166 452.358H350.112V452.271C350.112 451.401 349.948 450.628 349.619 449.951C349.31 449.274 348.856 448.743 348.256 448.356C347.657 447.95 346.942 447.747 346.11 447.747C345.279 447.747 344.564 447.95 343.964 448.356C343.384 448.743 342.94 449.274 342.63 449.951C342.321 450.628 342.166 451.401 342.166 452.271V452.358ZM361.555 461.29C360.472 461.29 359.544 461.155 358.771 460.884C357.998 460.613 357.369 460.285 356.886 459.898C356.403 459.511 356.035 459.125 355.784 458.738C355.552 458.351 355.426 458.042 355.407 457.81C355.388 457.597 355.455 457.433 355.61 457.317C355.765 457.201 355.919 457.143 356.074 457.143H357.35C357.466 457.143 357.553 457.162 357.611 457.201C357.688 457.22 357.785 457.298 357.901 457.433C358.152 457.704 358.433 457.974 358.742 458.245C359.051 458.516 359.428 458.738 359.873 458.912C360.337 459.086 360.907 459.173 361.584 459.173C362.57 459.173 363.382 458.989 364.02 458.622C364.658 458.235 364.977 457.675 364.977 456.94C364.977 456.457 364.842 456.07 364.571 455.78C364.32 455.49 363.856 455.229 363.179 454.997C362.522 454.765 361.613 454.523 360.453 454.272C359.293 454.001 358.375 453.673 357.698 453.286C357.021 452.88 356.538 452.406 356.248 451.865C355.958 451.304 355.813 450.676 355.813 449.98C355.813 449.265 356.026 448.578 356.451 447.921C356.876 447.244 357.495 446.693 358.307 446.268C359.138 445.843 360.173 445.63 361.41 445.63C362.415 445.63 363.276 445.756 363.991 446.007C364.706 446.258 365.296 446.577 365.76 446.964C366.224 447.331 366.572 447.699 366.804 448.066C367.036 448.433 367.162 448.743 367.181 448.994C367.2 449.187 367.142 449.352 367.007 449.487C366.872 449.603 366.717 449.661 366.543 449.661H365.325C365.19 449.661 365.074 449.632 364.977 449.574C364.9 449.516 364.822 449.448 364.745 449.371C364.552 449.12 364.32 448.868 364.049 448.617C363.798 448.366 363.459 448.163 363.034 448.008C362.628 447.834 362.087 447.747 361.41 447.747C360.443 447.747 359.718 447.95 359.235 448.356C358.752 448.762 358.51 449.274 358.51 449.893C358.51 450.26 358.616 450.589 358.829 450.879C359.042 451.169 359.448 451.43 360.047 451.662C360.646 451.894 361.536 452.145 362.715 452.416C363.991 452.667 364.996 453.006 365.731 453.431C366.466 453.856 366.988 454.349 367.297 454.91C367.606 455.471 367.761 456.118 367.761 456.853C367.761 457.665 367.519 458.409 367.036 459.086C366.572 459.763 365.876 460.304 364.948 460.71C364.039 461.097 362.908 461.29 361.555 461.29ZM377.121 461.29C375.13 461.29 373.545 460.681 372.365 459.463C371.186 458.226 370.538 456.544 370.422 454.417C370.403 454.166 370.393 453.847 370.393 453.46C370.393 453.054 370.403 452.725 370.422 452.474C370.5 451.101 370.819 449.903 371.379 448.878C371.94 447.834 372.704 447.032 373.67 446.471C374.656 445.91 375.807 445.63 377.121 445.63C378.591 445.63 379.818 445.939 380.804 446.558C381.81 447.177 382.573 448.056 383.095 449.197C383.617 450.338 383.878 451.672 383.878 453.199V453.692C383.878 453.905 383.811 454.069 383.675 454.185C383.559 454.301 383.405 454.359 383.211 454.359H373.177C373.177 454.378 373.177 454.417 373.177 454.475C373.177 454.533 373.177 454.581 373.177 454.62C373.216 455.413 373.39 456.157 373.699 456.853C374.009 457.53 374.453 458.081 375.033 458.506C375.613 458.931 376.309 459.144 377.121 459.144C377.817 459.144 378.397 459.038 378.861 458.825C379.325 458.612 379.702 458.38 379.992 458.129C380.282 457.858 380.476 457.655 380.572 457.52C380.746 457.269 380.882 457.124 380.978 457.085C381.075 457.027 381.23 456.998 381.442 456.998H382.834C383.028 456.998 383.182 457.056 383.298 457.172C383.434 457.269 383.492 457.414 383.472 457.607C383.453 457.897 383.298 458.255 383.008 458.68C382.718 459.086 382.303 459.492 381.761 459.898C381.22 460.304 380.563 460.642 379.789 460.913C379.016 461.164 378.127 461.29 377.121 461.29ZM373.177 452.358H381.123V452.271C381.123 451.401 380.959 450.628 380.63 449.951C380.321 449.274 379.867 448.743 379.267 448.356C378.668 447.95 377.953 447.747 377.121 447.747C376.29 447.747 375.575 447.95 374.975 448.356C374.395 448.743 373.951 449.274 373.641 449.951C373.332 450.628 373.177 451.401 373.177 452.271V452.358ZM388.013 461C387.819 461 387.655 460.942 387.52 460.826C387.404 460.691 387.346 460.526 387.346 460.333V446.616C387.346 446.423 387.404 446.258 387.52 446.123C387.655 445.988 387.819 445.92 388.013 445.92H389.347C389.54 445.92 389.704 445.988 389.84 446.123C389.975 446.258 390.043 446.423 390.043 446.616V447.892C390.429 447.235 390.961 446.742 391.638 446.413C392.314 446.084 393.126 445.92 394.074 445.92H395.234C395.427 445.92 395.582 445.988 395.698 446.123C395.814 446.239 395.872 446.394 395.872 446.587V447.776C395.872 447.969 395.814 448.124 395.698 448.24C395.582 448.356 395.427 448.414 395.234 448.414H393.494C392.45 448.414 391.628 448.723 391.029 449.342C390.429 449.941 390.13 450.763 390.13 451.807V460.333C390.13 460.526 390.062 460.691 389.927 460.826C389.791 460.942 389.627 461 389.434 461H388.013ZM403.611 461C403.321 461 403.089 460.932 402.915 460.797C402.761 460.662 402.635 460.488 402.538 460.275L397.173 446.819C397.135 446.722 397.115 446.626 397.115 446.529C397.115 446.355 397.173 446.21 397.289 446.094C397.405 445.978 397.55 445.92 397.724 445.92H399.116C399.329 445.92 399.493 445.978 399.609 446.094C399.725 446.21 399.793 446.316 399.812 446.413L404.249 457.839L408.657 446.413C408.696 446.316 408.764 446.21 408.86 446.094C408.976 445.978 409.141 445.92 409.353 445.92H410.774C410.929 445.92 411.064 445.978 411.18 446.094C411.316 446.21 411.383 446.355 411.383 446.529C411.383 446.626 411.364 446.722 411.325 446.819L405.931 460.275C405.854 460.488 405.728 460.662 405.554 460.797C405.4 460.932 405.168 461 404.858 461H403.611ZM419.885 461.29C417.894 461.29 416.308 460.681 415.129 459.463C413.95 458.226 413.302 456.544 413.186 454.417C413.167 454.166 413.157 453.847 413.157 453.46C413.157 453.054 413.167 452.725 413.186 452.474C413.263 451.101 413.582 449.903 414.143 448.878C414.704 447.834 415.467 447.032 416.434 446.471C417.42 445.91 418.57 445.63 419.885 445.63C421.354 445.63 422.582 445.939 423.568 446.558C424.573 447.177 425.337 448.056 425.859 449.197C426.381 450.338 426.642 451.672 426.642 453.199V453.692C426.642 453.905 426.574 454.069 426.439 454.185C426.323 454.301 426.168 454.359 425.975 454.359H415.941C415.941 454.378 415.941 454.417 415.941 454.475C415.941 454.533 415.941 454.581 415.941 454.62C415.98 455.413 416.154 456.157 416.463 456.853C416.772 457.53 417.217 458.081 417.797 458.506C418.377 458.931 419.073 459.144 419.885 459.144C420.581 459.144 421.161 459.038 421.625 458.825C422.089 458.612 422.466 458.38 422.756 458.129C423.046 457.858 423.239 457.655 423.336 457.52C423.51 457.269 423.645 457.124 423.742 457.085C423.839 457.027 423.993 456.998 424.206 456.998H425.598C425.791 456.998 425.946 457.056 426.062 457.172C426.197 457.269 426.255 457.414 426.236 457.607C426.217 457.897 426.062 458.255 425.772 458.68C425.482 459.086 425.066 459.492 424.525 459.898C423.984 460.304 423.326 460.642 422.553 460.913C421.78 461.164 420.89 461.29 419.885 461.29ZM415.941 452.358H423.887V452.271C423.887 451.401 423.723 450.628 423.394 449.951C423.085 449.274 422.63 448.743 422.031 448.356C421.432 447.95 420.716 447.747 419.885 447.747C419.054 447.747 418.338 447.95 417.739 448.356C417.159 448.743 416.714 449.274 416.405 449.951C416.096 450.628 415.941 451.401 415.941 452.271V452.358Z" fill="#F2F2F2"/>
</g>
<defs>
<clipPath id="clip0_342_67">
<rect width="600" height="600" fill="white"/>
</clipPath>
</defs>
</svg>
