<svg width="600" height="600" viewBox="0 0 600 600" fill="none" xmlns="http://www.w3.org/2000/svg">
<g clip-path="url(#clip0_347_2)">
<mask id="mask0_347_2" style="mask-type:luminance" maskUnits="userSpaceOnUse" x="0" y="0" width="600" height="600">
<path d="M600 0H0V600H600V0Z" fill="white"/>
</mask>
<g mask="url(#mask0_347_2)">
<mask id="mask1_347_2" style="mask-type:luminance" maskUnits="userSpaceOnUse" x="-31" y="-36" width="35" height="44">
<path d="M-30.1768 -35.6299H3.80757V7.34926H-30.1768V-35.6299Z" fill="white"/>
</mask>
<g mask="url(#mask1_347_2)">
<path d="M3.21875 -15.76C3.21875 -15.76 2.24999 -16.1142 1.77082 -16.2808C-0.37501 -17.0881 -2.64585 -18.4683 -4.43231 -19.9006C-6.01564 -21.1558 -7.74481 -22.9527 -8.55731 -24.8433C-9.54689 -27.1506 -11.0208 -31.9423 -11.0208 -34.359C-11.0208 -34.7236 -11.2656 -35.0413 -11.6094 -35.1402C-11.6719 -35.2392 -11.7708 -35.3381 -11.8802 -35.3954C-12.2708 -35.6298 -12.7761 -35.4944 -13.0052 -35.1038C-13.3125 -34.5777 -13.4219 -33.9215 -13.4219 -33.2131C-13.4219 -32.3798 -13.2396 -31.4631 -13.2031 -30.7913C-12.9479 -27.1767 -15.7813 -23.8694 -18.2344 -21.5361C-20.724 -19.1663 -24.2656 -16.9423 -27.5521 -15.9267C-28.1927 -15.734 -28.8542 -15.4996 -29.4167 -15.1611C-29.4896 -15.1246 -29.6406 -15.0517 -29.6406 -15.0517C-29.9583 -14.9006 -30.1563 -14.5725 -30.1146 -14.2288C-30.0781 -13.8746 -29.8334 -13.5986 -29.4896 -13.51C-29.4896 -13.51 -28.1406 -13.1819 -27.4688 -13.0465C-24.7448 -12.51 -22.2917 -11.385 -20.5156 -9.2131C-17.8906 -5.98914 -16.8438 -2.50476 -15.6823 1.40149C-15.2761 2.7817 -15.1302 4.23482 -14.9427 5.65149V6.52127C-14.9427 6.95877 -14.5886 7.32336 -14.1458 7.33899C-13.7083 7.3494 -13.3281 7.00565 -13.3021 6.56815C-13.3021 6.56815 -13.2656 5.94315 -13.3021 5.57857C-13.3021 4.80774 -13.2761 4.05253 -13.2292 3.29732C-12.9688 -0.770391 -11.1563 -4.47351 -8.52085 -7.5881C-5.9896 -10.5777 -2.30209 -13.4371 1.67187 -13.9371C2.15104 -13.9996 3.09895 -14.1715 3.09895 -14.1715C3.46354 -14.2444 3.73436 -14.5361 3.77082 -14.9163C3.78124 -15.2808 3.5625 -15.635 3.21875 -15.76ZM-9.79168 -8.6506C-11.9636 -6.08289 -13.5938 -3.16622 -14.3958 0.0108566C-15.5208 -3.73914 -16.6875 -7.10893 -19.25 -10.2496C-21.1406 -12.5725 -23.7031 -13.8642 -26.5625 -14.5256C-23.1979 -15.6611 -19.6302 -17.9319 -17.0938 -20.3486C-14.7761 -22.5465 -12.2708 -25.5777 -11.6719 -28.9006C-11.1667 -27.1038 -10.5677 -25.3694 -10.0781 -24.2079C-9.15627 -22.0829 -7.25522 -20.0465 -5.46356 -18.6298C-3.89585 -17.3798 -1.97918 -16.1611 -0.0677185 -15.2913C-3.85939 -14.3069 -7.33856 -11.5569 -9.79168 -8.6506Z" fill="black"/>
</g>
<mask id="mask2_347_2" style="mask-type:luminance" maskUnits="userSpaceOnUse" x="60" y="63" width="480" height="480">
<path d="M60.667 63.667H539.161V542.333H60.667V63.667Z" fill="white"/>
</mask>
<g mask="url(#mask2_347_2)">
<path d="M517.287 245.688C520.147 244.104 522.569 241.797 524.569 239.005C522.391 233.703 519.579 231.677 516.694 231.677C513.397 231.677 509.725 234.209 506.667 237.443C503.454 240.828 501.079 244.808 500.464 247.516H500.444C500.287 247.578 498.662 247.271 499.147 247.38L499.256 247.406C506.709 249.099 512.647 248.287 517.287 245.688ZM254.579 108.12C252.886 102.906 248.485 97.2559 240.016 92.1986C239.845 92.9903 239.735 93.8236 239.709 94.683C239.204 110.229 241.975 118.412 245.584 121.693C247.891 123.781 250.709 123.188 252.641 121.073C255.105 118.37 256.339 113.573 254.579 108.12ZM136.167 320.073C136.1 323.042 136.167 325.787 136.386 328.386C146.24 327.766 149.824 325.745 150.001 323.526C150.089 322.36 148.792 320.865 146.944 319.521C144.72 317.917 141.928 316.792 139.553 316.75H139.532C137.704 316.729 136.23 317.63 136.167 320.073ZM315.454 463.162C311.694 460.521 307.319 457.683 302.282 454.625C297.798 451.901 294.824 452.802 293.397 455.156C292.428 456.714 291.944 458.828 291.923 461.047C291.902 463.36 292.386 465.735 293.417 467.755C295.595 472.068 300.678 474.594 309.032 470.375C311.079 469.339 313.256 466.875 315.324 463.401L315.454 463.162ZM201.99 223.719C207.292 229.042 212.329 233.063 217.079 236.011L216.928 235.156C216.089 229.985 216.813 224.005 219.631 217.25C218.313 217.495 217.037 217.781 215.761 218.089C210.261 219.495 205.402 221.495 201.99 223.719ZM179.667 195.719C180.595 197.104 181.516 198.448 182.417 199.766C191.282 196.182 202.1 194.182 213.537 193.589C213.121 187.209 213.516 180.302 215.058 173.662C216.11 169.11 217.72 164.641 219.959 160.531L218.907 160.136C211.954 157.781 203.511 157.802 195.792 159.849C188.204 161.87 181.407 165.807 177.626 171.287C173.402 177.422 172.985 185.714 179.667 195.719ZM276.001 211.313C275.516 213.709 274.834 216.172 273.975 218.662C276.99 217.912 279.959 216.854 282.819 215.516C280.839 214.021 278.553 212.63 276.001 211.313ZM241.647 278.417C233.73 270.386 227.746 259.828 224.074 248.766C223.105 247.844 222.225 246.834 221.433 245.776C213.98 242.589 205.907 237 197.261 228.38C196.954 229.016 196.803 229.656 196.782 230.271C196.694 256.995 209.402 273.974 226.756 281.844C230.735 281.318 234.673 280.485 238.412 279.406C239.511 279.099 240.589 278.766 241.647 278.417ZM252.553 287.037C250.751 285.979 249.016 284.792 247.345 283.495C245.053 284.375 242.704 285.167 240.261 285.87L239.954 285.96C244.042 286.73 248.287 287.078 252.553 287.037ZM376.485 255.938C385.24 255.078 391.683 251.209 396.214 245.599C389.641 247.162 384.381 248.656 380.053 250.021L379.657 250.771C378.667 252.531 377.61 254.245 376.485 255.938ZM365.225 255.474C366.261 255.651 367.272 255.781 368.24 255.87C368.834 255.125 369.407 254.354 369.954 253.584C368.397 254.198 366.985 254.771 365.667 255.302L365.225 255.474ZM362.897 261.875C360.214 261.37 357.376 260.688 354.428 259.766L353.199 259.349C347.433 260.401 340.001 260.422 326.235 259.125C324.386 258.953 323.042 257.323 323.199 255.5C323.376 253.651 325.001 252.308 326.829 252.464C333.621 253.099 338.746 253.386 342.839 253.386C337.074 248.99 331.355 242.938 326.782 236.229C321.329 257.104 308.548 272.5 292.912 282.089C290.053 283.849 287.105 285.412 284.074 286.75C323.636 287.037 348.272 276.37 362.897 261.875ZM403.98 183.557C407.699 189.318 410.272 197.042 411.391 205.396C412.402 212.943 412.272 221.037 410.756 228.667C410.334 230.776 409.808 232.865 409.167 234.891C422.496 230.203 429.886 224.641 432.569 218.745C435.563 212.193 432.329 204.802 424.897 197.656C419.704 192.682 412.537 187.87 403.98 183.557ZM386.496 199.656C389.792 194.136 391.86 187.761 392.673 181.182C391.6 180.589 390.475 180.193 389.308 180.037C375.386 178.193 365.339 178.677 358.167 180.568C362.48 180.459 367.162 180.589 372.287 180.964C378.095 181.401 383.678 188.792 386.496 199.656ZM398.459 187.099C397.204 192.906 395.048 198.49 392.016 203.464C390.85 205.375 389.532 207.198 388.1 208.938C388.626 214.37 388.563 220.308 387.683 226.469C386.959 231.547 385.657 236.761 383.704 241.927C387.001 240.985 390.74 240.016 395.006 239.005C397.115 238.495 399.141 237.99 401.079 237.443C402.438 234.297 403.475 230.912 404.157 227.412C405.542 220.485 405.652 213.141 404.725 206.323C403.735 198.776 401.537 191.938 398.459 187.099ZM307.298 154.37C312.355 139.11 327.397 127.495 359.027 128.552C379.282 129.235 391.907 141.86 397.095 157.74C398.787 162.974 399.688 168.557 399.756 174.167C412.095 179.578 422.454 186 429.558 192.839C439.126 202.011 443.016 212.037 438.683 221.542C434.902 229.834 424.589 237.375 405.829 243.052C404.595 245.401 403.167 247.646 401.516 249.693C394.876 257.985 385.001 263.328 371.23 262.823C354.714 281.844 324.386 296.011 272.24 293.104C270.235 292.995 268.282 292.735 266.365 292.36C264.079 292.797 261.792 293.13 259.506 293.349C247.912 294.516 236.345 293.021 226.053 288.797L225.787 288.688C222.954 288.995 220.095 289.172 217.235 289.172C209.272 289.214 201.308 288.026 193.964 285.235C175.115 278.11 160.449 260.776 160.292 227.323C160.251 216.24 166.475 208.146 176.303 202.646L174.105 199.417C165.595 186.682 166.386 175.75 172.126 167.479C176.876 160.62 185.058 155.781 194.095 153.36C203.006 150.985 212.855 150.985 221.084 153.776C221.985 154.089 222.865 154.417 223.72 154.792C230.386 146.235 240.746 140.078 256.162 139.151C267.709 138.469 278.86 139.261 288.183 142.146C295.334 144.344 301.423 147.776 305.912 152.703C306.397 153.25 306.855 153.802 307.298 154.37ZM314.798 184.261C316.204 188.464 318.053 192.485 320.183 196.115C320.47 195.63 320.777 195.146 321.11 194.667C319.985 190.552 318.115 187.386 315.652 185.031L314.798 184.261ZM329.511 207.818C332.214 210.172 334.964 211.709 337.537 212.125C336.813 210.235 336.22 208.167 335.824 206.037C335.162 202.406 334.964 198.469 335.626 194.599C335.824 193.412 336.11 192.245 336.48 191.078C333.511 192.313 331.115 193.828 329.225 195.542C328.917 195.828 328.61 196.115 328.324 196.422L328.496 197.568C329.027 201.063 329.334 204.495 329.511 207.818ZM343.694 210.453C347.256 207.396 350.032 200.318 351.022 187.714C348.928 187.932 346.996 188.198 345.194 188.552C343.61 190.75 342.704 193.214 342.266 195.719C341.74 198.776 341.891 201.943 342.417 204.849C342.792 206.917 343.235 208.807 343.694 210.453ZM340.923 218.86C340.287 218.943 339.647 218.99 338.99 218.99C335.933 218.99 332.74 217.933 329.621 216.063C329.511 219.672 329.225 223.167 328.74 226.531C334.808 238.016 345.016 248.349 353.725 252.334C356.912 251.584 359.662 250.464 363.136 249.052C366.35 247.755 370.131 246.219 375.298 244.479C378.313 238.188 380.136 231.724 381.042 225.5C381.548 221.938 381.766 218.464 381.72 215.12C372.704 222.177 360.345 225.651 344.751 222.792C343.938 222.662 342.464 221.188 340.923 218.86ZM357.751 187.297C356.496 203.219 352.381 212.323 346.886 216.396C361.97 218.922 373.386 214.547 381.063 206.719L380.845 205.354C379.084 195.125 375.324 187.959 371.761 187.693C366.61 187.297 361.949 187.167 357.751 187.297ZM356.23 168.182C357.089 169.854 357.683 171.703 357.949 173.771C362.433 172.735 367.735 172.167 373.98 172.188C368.261 170.625 362.303 169.261 356.23 168.182ZM321.35 165.302C318.621 165.677 315.85 166.182 313.037 166.776C313.412 168.537 313.673 170.406 313.782 172.365C313.85 173.443 313.871 174.542 313.85 175.682C316.204 176.87 318.36 178.365 320.272 180.214C322.782 182.636 324.824 185.604 326.319 189.235C330.058 186.349 335.006 184.063 341.428 182.547C343.85 179.906 347.105 177.62 351.371 175.86C351.282 173.969 350.845 172.386 350.141 171.089C349.016 169.063 347.126 167.568 344.662 166.511C336.964 165.61 329.136 165.172 321.35 165.302ZM320.47 158.662C326.433 157.849 332.126 157.563 337.183 158C340.574 158.307 343.673 158.948 346.402 159.959C362.016 161.828 377.084 165.521 390.386 170.406L392.938 171.375C392.673 167.417 391.928 163.5 390.72 159.828C386.365 146.453 375.782 135.807 358.829 135.261C329.532 134.292 316.558 145.177 313.016 159.011C315.48 158.813 317.964 158.729 320.47 158.662ZM305.251 168.625C301.709 169.568 298.235 170.625 294.871 171.745C298.563 171.745 302.126 172.057 305.496 172.761C305.36 171.396 305.272 170.011 305.251 168.625ZM253.282 203.573C251.72 206.87 250.641 210.172 250.006 213.36C253.938 215.031 257.636 217.271 260.912 220.198C262.652 220.219 264.433 220.156 266.235 220H266.256C267.949 216.13 269.115 212.172 269.688 208.5C266.61 207.287 263.287 206.188 259.792 205.198C257.704 204.604 255.501 204.057 253.282 203.573ZM260.1 192.86C258.845 194.401 257.725 195.938 256.714 197.479C258.36 197.875 259.99 198.292 261.595 198.735C264.542 199.547 267.381 200.469 270.084 201.459C269.839 197.896 268.766 195.344 266.787 194.688C264.454 193.917 262.23 193.302 260.1 192.86ZM249.72 196.005C250.532 194.641 251.412 193.302 252.381 191.938C250.225 191.891 248.199 192.047 246.355 192.401C245.449 193.276 244.548 194.156 243.714 195.016C245.735 195.302 247.74 195.63 249.72 196.005ZM243.584 211.203C244.24 208.255 245.188 205.266 246.506 202.25C243.865 201.792 241.162 201.417 238.459 201.11C238.037 204.255 237.532 206.959 236.959 209.292L237.334 210.037C239.423 210.281 241.516 210.677 243.584 211.203ZM250.574 230.714C251.214 233.021 252.074 235.177 253.105 237.177C255.72 235.266 258.053 232.912 260.1 230.339L260.516 229.787C259.725 228.709 258.865 227.698 257.964 226.75C255.016 226.552 252.183 226.115 249.522 225.453C249.74 227.281 250.089 229.042 250.574 230.714ZM247.277 240.521C245.98 238.058 244.902 235.375 244.11 232.537C243.272 229.547 242.746 226.354 242.569 223.057C239.225 221.495 236.345 219.474 234.126 217.031L233.73 217.693C231.417 221.276 228.954 222.729 226.558 222.464C226.428 228.511 227.24 234.979 228.891 241.38C231.923 242.235 234.808 242.589 237.532 242.568C241.032 242.521 244.287 241.776 247.277 240.521ZM260.824 246.854C262.871 248.485 265.069 249.646 267.266 250.287L267.709 250.151C267.136 244.677 265.881 239.969 264.1 236.011C261.923 238.563 259.459 240.87 256.756 242.828C258.011 244.349 259.397 245.709 260.824 246.854ZM256.735 252.136L256.688 252.089C254.621 250.464 252.688 248.485 250.928 246.219C246.923 248.089 242.459 249.162 237.6 249.229H237.095C238.303 249.735 239.579 250.177 240.897 250.547C245.824 251.959 251.277 252.505 256.735 252.136ZM268.058 257.323L267.292 257.193C257.876 259.568 247.74 259.5 239.074 257.037C237.246 256.511 235.49 255.896 233.792 255.146C237.47 263.063 242.459 270.276 248.532 275.797C259.944 270.808 267.907 263.813 268.058 257.323ZM287.084 231.745C287.897 228.182 288.449 224.886 288.777 221.849C288.516 221.386 288.204 220.948 287.897 220.485C282.444 223.365 276.574 225.214 270.72 226.156C270.063 227.412 269.36 228.646 268.61 229.854C271.313 234.714 273.272 240.589 274.173 247.625C277.277 246.104 280.11 244.193 282.574 241.906C283.194 241.334 283.787 240.761 284.313 240.193C285.391 237.818 286.339 235.021 287.084 231.745ZM295.819 215.292C295.839 216.875 295.772 218.526 295.662 220.245C299.136 227.349 297.907 235.396 289.902 244.084C286.313 251.318 281.386 255.365 276.042 256.886C275.626 256.995 275.209 257.104 274.792 257.193C274.766 265.573 266.522 274.172 254.449 280.349C258.141 282.75 262.147 284.531 266.433 285.542C274.417 283.87 282.266 280.813 289.438 276.391C305.339 266.651 317.964 250.266 321.766 227.61C321.417 226.886 321.084 226.156 320.756 225.432C318.074 219.297 316.579 212.964 316.954 207.047C317.016 206.011 317.126 205.021 317.303 204.011C316.709 203.151 316.115 202.297 315.542 201.396C313.829 198.688 312.266 195.787 310.902 192.709L310.792 193.037C307.845 202.604 302.459 209.948 295.819 215.292ZM281.037 194.75C278.595 192.709 275.626 191.255 272.303 190.307C275.496 193.167 276.97 198.229 276.813 204.255C281.563 206.474 285.678 209.026 288.933 211.839C288.251 203.948 285.391 198.38 281.037 194.75ZM270.214 182.985C276.001 184 281.167 186.151 285.324 189.604C290.141 193.63 293.553 199.328 295.027 206.959C299.136 202.755 302.412 197.521 304.417 191.099C305.605 187.297 306.371 183.776 306.792 180.521L306.657 179.995C302.944 178.875 298.761 178.432 294.345 178.479C287.105 178.542 279.256 179.953 271.777 181.974C271.23 182.302 270.699 182.656 270.214 182.985ZM239.667 185.802C241.516 185.25 243.36 184.766 245.188 184.349C261.089 170.339 281.501 162.818 303.095 159.959C302.459 158.99 301.756 158.089 300.964 157.229C297.334 153.25 292.251 150.438 286.225 148.568C277.714 145.927 267.381 145.224 256.558 145.86C244.001 146.61 235.402 151.427 229.725 158.219C235.949 162.839 239.975 169.99 239.819 179.974C239.777 182.016 239.735 183.953 239.667 185.802ZM215.032 204.078C208.261 208.146 201.949 212.854 196.584 217.932L197.527 219.011C201.792 215.886 207.6 213.25 214.157 211.578C215.1 211.334 216.069 211.115 217.037 210.917L216.595 209.662C216.001 207.948 215.475 206.078 215.032 204.078ZM222.204 200.099L221.173 200.646C221.542 202.672 222.006 204.563 222.532 206.276C223.282 204.12 224.183 202.052 225.24 200.162L222.204 200.099ZM220.621 193.391C224.647 191.365 228.756 189.584 232.871 188.068C232.98 185.537 233.069 182.834 233.115 179.906C233.225 172.604 230.365 167.328 225.897 163.828C223.944 167.37 222.532 171.219 221.61 175.177C220.183 181.271 219.85 187.584 220.246 193.391H220.621ZM192.313 212.943C197.001 208.521 202.277 204.406 207.928 200.714C200.037 201.485 192.667 203 186.397 205.307C188.402 208.016 190.381 210.568 192.313 212.943ZM179.319 247.974C179.183 249.823 177.579 251.209 175.73 251.078C173.886 250.948 172.501 249.339 172.61 247.495C173.355 237.287 179.053 226.995 187.584 217.693C185.147 214.745 182.662 211.531 180.131 208.078C172.016 212.479 166.933 218.792 166.959 227.302C167.069 257.344 179.865 272.761 196.272 278.964C201.97 281.12 208.126 282.198 214.376 282.438C199.839 272.193 189.985 254.906 190.074 230.25C190.074 228.005 191.016 225.74 192.667 223.584L191.876 222.709C184.683 230.714 179.933 239.422 179.319 247.974ZM304.985 540.203C303.845 541.656 301.73 541.917 300.282 540.776C298.829 539.63 298.563 537.521 299.709 536.068C306.022 527.953 311.829 521.287 316.928 515.438C323.261 508.156 328.496 502.156 331.709 496.896C337.694 487.11 336.261 479.151 320.886 467.141C318.225 471.537 315.173 474.771 312.048 476.354C299.292 482.823 291.178 478.183 287.438 470.771C285.917 467.776 285.194 464.302 285.235 460.985C285.282 457.573 286.095 454.25 287.699 451.636C291.042 446.136 297.225 443.63 305.803 448.865C310.532 451.745 314.73 454.448 318.449 457.021C320.845 451.151 322.626 443.979 323.287 436.349C324.188 425.683 322.845 414.183 317.766 404.172C314.095 396.917 308.417 390.406 300.194 385.521C274.944 370.547 242.391 371.361 212.881 372.085C204.256 372.309 195.902 372.505 187.98 372.328C158.204 371.625 135.131 365.531 130.36 335.047C125.365 335.203 119.537 335.068 112.766 334.542C106.803 334.078 101.417 332.543 96.5581 330.059C82.5008 322.907 73.0894 308.172 67.6102 290.422C62.2456 273.073 60.6206 252.792 62.0477 234.031C63.3446 217.099 67.131 201.328 72.9123 189.959L75.506 184.854C101.834 132.927 140.501 56.6361 218.595 76.6465C225.766 78.4955 231.86 80.6726 237.006 83.0684C242.438 75.7455 252.975 70.9955 266.037 68.1361C281.345 64.7924 300.371 63.9799 318.449 64.5736C342.772 65.3861 365.558 68.7976 375.433 72.0945L388.147 76.3392C461.626 100.906 462.923 101.323 523.6 160.136C532.662 168.912 538.511 187.318 539.063 205.443C539.35 214.896 538.225 224.334 535.365 232.36C534.376 235.156 533.167 237.792 531.74 240.214C534.115 247.755 535.589 258.558 535.589 273.599C535.589 347.297 488.501 355.193 430.876 364.849C422.496 366.255 413.876 367.709 405.037 369.422L404.574 369.49C402.11 369.729 391.397 370.323 380.272 370.875C367.714 371.49 354.605 372.063 352.074 372.063C350.23 372.063 348.709 370.568 348.709 368.698C348.709 366.849 350.204 365.335 352.074 365.335C354.735 365.335 367.667 364.761 379.938 364.167C391.553 363.594 402.574 363 403.694 362.849H403.735C412.49 361.13 421.246 359.683 429.756 358.25C484.298 349.104 528.86 341.646 528.86 273.62C528.86 261.854 528.089 253.099 526.792 246.724C524.944 248.615 522.855 250.219 520.522 251.516C514.475 254.88 506.928 256.005 497.735 253.917L497.537 253.87C494.001 252.969 492.985 249.979 493.886 246.021V245.995C494.746 242.255 497.761 237.021 501.782 232.802C505.938 228.401 511.287 224.948 516.673 224.948C520.876 224.948 524.944 226.995 528.22 232.271C528.506 231.589 528.772 230.886 529.032 230.162C531.605 222.927 532.621 214.328 532.355 205.662C531.85 189.146 526.766 172.604 518.917 164.974C459.334 107.24 458.084 106.802 386.011 82.7195L373.298 78.4747C363.907 75.3288 341.912 72.0736 318.225 71.282C300.652 70.709 282.225 71.5007 267.444 74.7142C256.402 77.1309 247.542 80.8288 243.011 86.2351C253.391 92.3497 258.803 99.4538 260.954 106.031C263.553 113.995 261.485 121.292 257.589 125.563C253.173 130.422 246.574 131.651 241.053 126.641C236.214 122.219 232.407 112.297 233.001 94.4642C233.069 92.5476 233.376 90.7247 233.928 89.0059C229.22 86.8549 223.589 84.8497 216.928 83.1361C144.037 64.4434 106.829 137.875 81.4904 187.87L78.8966 192.995C73.506 203.594 69.9644 218.459 68.7352 234.516C67.3706 252.526 68.9123 271.927 73.9904 288.443C78.9591 304.542 87.2977 317.808 99.5685 324.052C103.657 326.141 108.214 327.439 113.225 327.835C119.673 328.319 125.105 328.537 129.61 328.537C129.438 325.834 129.371 322.953 129.438 319.896C129.61 312.573 134.121 309.886 139.662 310.021H139.709C143.444 310.13 147.647 311.735 150.834 314.042C154.423 316.641 156.928 320.245 156.641 323.985C156.287 328.672 151.188 333.115 137.157 334.589C141.886 359.88 162.095 365.005 188.069 365.62C195.834 365.797 204.126 365.599 212.657 365.375C243.074 364.61 276.657 363.771 303.537 379.74C312.97 385.323 319.459 392.802 323.683 401.162C329.376 412.401 330.897 425.156 329.907 436.922C329.136 445.875 326.912 454.318 323.944 461.068C344.089 476.334 345.699 486.735 337.36 500.396C333.819 506.198 328.454 512.36 321.923 519.86C316.839 525.776 310.97 532.526 304.985 540.203Z" fill="#E0E0E0"/>
</g>
</g>
</g>
<defs>
<clipPath id="clip0_347_2">
<rect width="600" height="600" fill="white"/>
</clipPath>
</defs>
</svg>
