<svg width="600" height="600" viewBox="0 0 600 600" fill="none" xmlns="http://www.w3.org/2000/svg">
<g clip-path="url(#clip0_278_50)">
<mask id="mask0_278_50" style="mask-type:luminance" maskUnits="userSpaceOnUse" x="-31" y="-36" width="35" height="44">
<path d="M-30.1772 -35.6301H3.80713V7.34904H-30.1772V-35.6301Z" fill="white"/>
</mask>
<g mask="url(#mask0_278_50)">
<path d="M3.21874 -15.7602C3.21874 -15.7602 2.24999 -16.1144 1.77082 -16.281C-0.375014 -17.0883 -2.64585 -18.4685 -4.43231 -19.9008C-6.01564 -21.156 -7.74481 -22.9529 -8.55731 -24.8435C-9.54689 -27.1508 -11.0208 -31.9425 -11.0208 -34.3592C-11.0208 -34.7238 -11.2656 -35.0415 -11.6094 -35.1404C-11.6719 -35.2394 -11.7708 -35.3383 -11.8802 -35.3956C-12.2708 -35.63 -12.7761 -35.4946 -13.0052 -35.104C-13.3125 -34.5779 -13.4219 -33.9217 -13.4219 -33.2133C-13.4219 -32.38 -13.2396 -31.4633 -13.2031 -30.7915C-12.9479 -27.1769 -15.7813 -23.8696 -18.2344 -21.5363C-20.724 -19.1665 -24.2656 -16.9425 -27.5521 -15.9269C-28.1927 -15.7342 -28.8542 -15.4998 -29.4167 -15.1613C-29.4896 -15.1248 -29.6406 -15.0519 -29.6406 -15.0519C-29.9583 -14.9008 -30.1563 -14.5727 -30.1146 -14.229C-30.0781 -13.8748 -29.8334 -13.5988 -29.4896 -13.5102C-29.4896 -13.5102 -28.1406 -13.1821 -27.4688 -13.0467C-24.7448 -12.5102 -22.2917 -11.3852 -20.5156 -9.21334C-17.8906 -5.98938 -16.8438 -2.505 -15.6823 1.40125C-15.2761 2.78146 -15.1302 4.23458 -14.9427 5.65125V6.52104C-14.9427 6.95854 -14.5886 7.32312 -14.1458 7.33875C-13.7083 7.34916 -13.3281 7.00541 -13.3021 6.56791C-13.3021 6.56791 -13.2656 5.94291 -13.3021 5.57833C-13.3021 4.8075 -13.2761 4.05229 -13.2292 3.29708C-12.9688 -0.770629 -11.1563 -4.47375 -8.52085 -7.58834C-5.9896 -10.5779 -2.3021 -13.4373 1.67186 -13.9373C2.15103 -13.9998 3.09894 -14.1717 3.09894 -14.1717C3.46353 -14.2446 3.73436 -14.5363 3.77082 -14.9165C3.78124 -15.281 3.56249 -15.6352 3.21874 -15.7602ZM-9.79168 -8.65084C-11.9636 -6.08313 -13.5938 -3.16646 -14.3958 0.0106212C-15.5208 -3.73938 -16.6875 -7.10917 -19.25 -10.2498C-21.1406 -12.5727 -23.7031 -13.8644 -26.5625 -14.5258C-23.1979 -15.6613 -19.6302 -17.9321 -17.0938 -20.3488C-14.7761 -22.5467 -12.2708 -25.5779 -11.6719 -28.9008C-11.1667 -27.104 -10.5677 -25.3696 -10.0781 -24.2081C-9.15627 -22.0831 -7.25522 -20.0467 -5.46356 -18.63C-3.89585 -17.38 -1.97918 -16.1613 -0.0677227 -15.2915C-3.85939 -14.3071 -7.33856 -11.5571 -9.79168 -8.65084Z" fill="black"/>
</g>
<mask id="mask1_278_50" style="mask-type:luminance" maskUnits="userSpaceOnUse" x="60" y="63" width="480" height="480">
<path d="M60.6665 63.6667H539.161V542.333H60.6665V63.6667Z" fill="white"/>
</mask>
<g mask="url(#mask1_278_50)">
<path d="M517.286 245.688C520.146 244.104 522.568 241.797 524.568 239.005C522.39 233.703 519.578 231.677 516.693 231.677C513.396 231.677 509.724 234.209 506.666 237.443C503.453 240.828 501.078 244.808 500.463 247.516H500.443C500.286 247.578 498.661 247.271 499.146 247.38L499.255 247.406C506.708 249.099 512.646 248.287 517.286 245.688ZM254.578 108.12C252.885 102.906 248.484 97.2554 240.015 92.1981C239.844 92.9898 239.734 93.8231 239.708 94.6825C239.203 110.229 241.974 118.412 245.583 121.693C247.89 123.781 250.708 123.188 252.64 121.073C255.104 118.37 256.338 113.573 254.578 108.12ZM136.166 320.073C136.099 323.042 136.166 325.787 136.385 328.386C146.239 327.766 149.823 325.745 150 323.526C150.088 322.36 148.791 320.865 146.943 319.521C144.719 317.917 141.927 316.792 139.552 316.75H139.531C137.703 316.729 136.229 317.63 136.166 320.073ZM315.453 463.162C311.693 460.521 307.318 457.683 302.281 454.625C297.797 451.901 294.823 452.802 293.396 455.156C292.427 456.714 291.943 458.828 291.922 461.047C291.901 463.36 292.385 465.735 293.416 467.755C295.594 472.068 300.677 474.594 309.031 470.375C311.078 469.339 313.255 466.875 315.323 463.401L315.453 463.162ZM201.989 223.719C207.291 229.042 212.328 233.063 217.078 236.011L216.927 235.156C216.088 229.985 216.812 224.005 219.63 217.25C218.312 217.495 217.036 217.781 215.76 218.089C210.26 219.495 205.401 221.495 201.989 223.719ZM179.666 195.719C180.594 197.104 181.515 198.448 182.416 199.766C191.281 196.182 202.099 194.182 213.536 193.589C213.12 187.209 213.515 180.302 215.057 173.662C216.109 169.11 217.719 164.641 219.958 160.531L218.906 160.136C211.953 157.781 203.51 157.802 195.791 159.849C188.203 161.87 181.406 165.807 177.625 171.287C173.401 177.422 172.984 185.714 179.666 195.719ZM276 211.313C275.515 213.709 274.833 216.172 273.974 218.662C276.989 217.912 279.958 216.854 282.818 215.516C280.838 214.021 278.552 212.63 276 211.313ZM241.646 278.417C233.729 270.386 227.745 259.828 224.073 248.766C223.104 247.844 222.224 246.834 221.432 245.776C213.979 242.589 205.906 237 197.26 228.38C196.953 229.016 196.802 229.656 196.781 230.271C196.693 256.995 209.401 273.974 226.755 281.844C230.734 281.318 234.672 280.485 238.411 279.406C239.51 279.099 240.588 278.766 241.646 278.417ZM252.552 287.037C250.75 285.979 249.015 284.792 247.344 283.495C245.052 284.375 242.703 285.167 240.26 285.87L239.953 285.959C244.041 286.729 248.286 287.078 252.552 287.037ZM376.484 255.938C385.239 255.078 391.682 251.209 396.213 245.599C389.64 247.162 384.38 248.656 380.052 250.021L379.656 250.771C378.666 252.531 377.609 254.245 376.484 255.938ZM365.224 255.474C366.26 255.651 367.271 255.781 368.239 255.87C368.833 255.125 369.406 254.354 369.953 253.584C368.396 254.198 366.984 254.771 365.666 255.302L365.224 255.474ZM362.896 261.875C360.213 261.37 357.375 260.688 354.427 259.766L353.198 259.349C347.432 260.401 340 260.422 326.234 259.125C324.385 258.953 323.041 257.323 323.198 255.5C323.375 253.651 325 252.308 326.828 252.464C333.62 253.099 338.745 253.386 342.838 253.386C337.073 248.99 331.354 242.938 326.781 236.229C321.328 257.104 308.547 272.5 292.911 282.089C290.052 283.849 287.104 285.412 284.073 286.75C323.635 287.037 348.271 276.37 362.896 261.875ZM403.979 183.557C407.698 189.318 410.271 197.042 411.39 205.396C412.401 212.943 412.271 221.037 410.755 228.667C410.333 230.776 409.807 232.865 409.166 234.891C422.495 230.203 429.885 224.641 432.568 218.745C435.562 212.193 432.328 204.802 424.896 197.656C419.703 192.682 412.536 187.87 403.979 183.557ZM386.495 199.656C389.791 194.136 391.859 187.761 392.672 181.182C391.599 180.589 390.474 180.193 389.307 180.037C375.385 178.193 365.338 178.677 358.166 180.568C362.479 180.459 367.161 180.589 372.286 180.964C378.094 181.401 383.677 188.792 386.495 199.656ZM398.458 187.099C397.203 192.906 395.047 198.49 392.015 203.464C390.849 205.375 389.531 207.198 388.099 208.938C388.625 214.37 388.562 220.308 387.682 226.469C386.958 231.547 385.656 236.761 383.703 241.927C387 240.985 390.739 240.016 395.005 239.005C397.114 238.495 399.14 237.99 401.078 237.443C402.437 234.297 403.474 230.912 404.156 227.412C405.541 220.485 405.651 213.141 404.724 206.323C403.734 198.776 401.536 191.938 398.458 187.099ZM307.297 154.37C312.354 139.11 327.396 127.495 359.026 128.552C379.281 129.235 391.906 141.86 397.094 157.74C398.786 162.974 399.687 168.557 399.755 174.167C412.094 179.578 422.453 186 429.557 192.839C439.125 202.011 443.015 212.037 438.682 221.542C434.901 229.834 424.588 237.375 405.828 243.052C404.594 245.401 403.166 247.646 401.515 249.693C394.875 257.985 385 263.328 371.229 262.823C354.713 281.844 324.385 296.011 272.239 293.104C270.234 292.995 268.281 292.735 266.364 292.36C264.078 292.797 261.791 293.13 259.505 293.349C247.911 294.516 236.344 293.021 226.052 288.797L225.786 288.688C222.953 288.995 220.094 289.172 217.234 289.172C209.271 289.214 201.307 288.026 193.963 285.235C175.114 278.11 160.448 260.776 160.291 227.323C160.25 216.24 166.474 208.146 176.302 202.646L174.104 199.417C165.594 186.682 166.385 175.75 172.125 167.479C176.875 160.62 185.057 155.781 194.094 153.36C203.005 150.985 212.854 150.985 221.083 153.776C221.984 154.089 222.864 154.417 223.719 154.792C230.385 146.235 240.745 140.078 256.161 139.151C267.708 138.469 278.859 139.261 288.182 142.146C295.333 144.344 301.422 147.776 305.911 152.703C306.396 153.25 306.854 153.802 307.297 154.37ZM314.797 184.261C316.203 188.464 318.052 192.485 320.182 196.115C320.469 195.63 320.776 195.146 321.109 194.667C319.984 190.552 318.114 187.386 315.651 185.031L314.797 184.261ZM329.51 207.818C332.213 210.172 334.963 211.709 337.536 212.125C336.812 210.235 336.219 208.167 335.823 206.037C335.161 202.406 334.963 198.469 335.625 194.599C335.823 193.412 336.109 192.245 336.479 191.078C333.51 192.313 331.114 193.828 329.224 195.542C328.916 195.828 328.609 196.115 328.323 196.422L328.495 197.568C329.026 201.063 329.333 204.495 329.51 207.818ZM343.693 210.453C347.255 207.396 350.031 200.318 351.021 187.714C348.927 187.932 346.995 188.198 345.193 188.552C343.609 190.75 342.703 193.214 342.265 195.719C341.739 198.776 341.89 201.943 342.416 204.849C342.791 206.917 343.234 208.807 343.693 210.453ZM340.922 218.86C340.286 218.943 339.646 218.99 338.989 218.99C335.932 218.99 332.739 217.933 329.62 216.063C329.51 219.672 329.224 223.167 328.739 226.531C334.807 238.016 345.015 248.349 353.724 252.334C356.911 251.584 359.661 250.464 363.135 249.052C366.349 247.755 370.13 246.219 375.297 244.479C378.312 238.188 380.135 231.724 381.041 225.5C381.547 221.938 381.765 218.464 381.719 215.12C372.703 222.177 360.344 225.651 344.75 222.792C343.937 222.662 342.463 221.188 340.922 218.86ZM357.75 187.297C356.495 203.219 352.38 212.323 346.885 216.396C361.969 218.922 373.385 214.547 381.062 206.719L380.844 205.354C379.083 195.125 375.323 187.959 371.76 187.693C366.609 187.297 361.948 187.167 357.75 187.297ZM356.229 168.182C357.088 169.854 357.682 171.703 357.948 173.771C362.432 172.735 367.734 172.167 373.979 172.188C368.26 170.625 362.302 169.261 356.229 168.182ZM321.349 165.302C318.62 165.677 315.849 166.182 313.036 166.776C313.411 168.537 313.672 170.406 313.781 172.365C313.849 173.443 313.87 174.542 313.849 175.682C316.203 176.87 318.359 178.365 320.271 180.214C322.781 182.636 324.823 185.604 326.318 189.235C330.057 186.349 335.005 184.063 341.427 182.547C343.849 179.906 347.104 177.62 351.37 175.86C351.281 173.969 350.844 172.386 350.14 171.089C349.015 169.063 347.125 167.568 344.661 166.511C336.963 165.61 329.135 165.172 321.349 165.302ZM320.469 158.662C326.432 157.849 332.125 157.563 337.182 158C340.573 158.307 343.672 158.948 346.401 159.959C362.015 161.828 377.083 165.521 390.385 170.406L392.937 171.375C392.672 167.417 391.927 163.5 390.719 159.828C386.364 146.453 375.781 135.807 358.828 135.261C329.531 134.292 316.557 145.177 313.015 159.011C315.479 158.813 317.963 158.729 320.469 158.662ZM305.25 168.625C301.708 169.568 298.234 170.625 294.87 171.745C298.562 171.745 302.125 172.057 305.495 172.761C305.359 171.396 305.271 170.011 305.25 168.625ZM253.281 203.573C251.719 206.87 250.64 210.172 250.005 213.36C253.937 215.031 257.635 217.271 260.911 220.198C262.651 220.219 264.432 220.156 266.234 220H266.255C267.948 216.13 269.114 212.172 269.687 208.5C266.609 207.287 263.286 206.188 259.791 205.198C257.703 204.604 255.5 204.057 253.281 203.573ZM260.099 192.86C258.844 194.401 257.724 195.938 256.713 197.479C258.359 197.875 259.989 198.292 261.594 198.735C264.541 199.547 267.38 200.469 270.083 201.459C269.838 197.896 268.765 195.344 266.786 194.688C264.453 193.917 262.229 193.302 260.099 192.86ZM249.719 196.005C250.531 194.641 251.411 193.302 252.38 191.938C250.224 191.891 248.198 192.047 246.354 192.401C245.448 193.276 244.547 194.156 243.713 195.016C245.734 195.302 247.739 195.63 249.719 196.005ZM243.583 211.203C244.239 208.255 245.187 205.266 246.505 202.25C243.864 201.792 241.161 201.417 238.458 201.11C238.036 204.255 237.531 206.959 236.958 209.292L237.333 210.037C239.422 210.281 241.515 210.677 243.583 211.203ZM250.573 230.714C251.213 233.021 252.073 235.177 253.104 237.177C255.719 235.266 258.052 232.912 260.099 230.339L260.515 229.787C259.724 228.709 258.864 227.698 257.963 226.75C255.015 226.552 252.182 226.115 249.521 225.453C249.739 227.281 250.088 229.042 250.573 230.714ZM247.276 240.521C245.979 238.058 244.901 235.375 244.109 232.537C243.271 229.547 242.745 226.354 242.568 223.057C239.224 221.495 236.344 219.474 234.125 217.031L233.729 217.693C231.416 221.276 228.953 222.729 226.557 222.464C226.427 228.511 227.239 234.979 228.89 241.38C231.922 242.235 234.807 242.589 237.531 242.568C241.031 242.521 244.286 241.776 247.276 240.521ZM260.823 246.854C262.87 248.485 265.068 249.646 267.265 250.287L267.708 250.151C267.135 244.677 265.88 239.969 264.099 236.011C261.922 238.563 259.458 240.87 256.755 242.828C258.01 244.349 259.396 245.709 260.823 246.854ZM256.734 252.136L256.687 252.089C254.62 250.464 252.687 248.485 250.927 246.219C246.922 248.089 242.458 249.162 237.599 249.229H237.094C238.302 249.735 239.578 250.177 240.896 250.547C245.823 251.959 251.276 252.505 256.734 252.136ZM268.057 257.323L267.291 257.193C257.875 259.568 247.739 259.5 239.073 257.037C237.245 256.511 235.489 255.896 233.791 255.146C237.469 263.063 242.458 270.276 248.531 275.797C259.943 270.808 267.906 263.813 268.057 257.323ZM287.083 231.745C287.896 228.182 288.448 224.886 288.776 221.849C288.515 221.386 288.203 220.948 287.896 220.485C282.443 223.365 276.573 225.214 270.719 226.156C270.062 227.412 269.359 228.646 268.609 229.854C271.312 234.714 273.271 240.589 274.172 247.625C277.276 246.104 280.109 244.193 282.573 241.906C283.193 241.334 283.786 240.761 284.312 240.193C285.39 237.818 286.338 235.021 287.083 231.745ZM295.818 215.292C295.838 216.875 295.771 218.526 295.661 220.245C299.135 227.349 297.906 235.396 289.901 244.084C286.312 251.318 281.385 255.365 276.041 256.886C275.625 256.995 275.208 257.104 274.791 257.193C274.765 265.573 266.521 274.172 254.448 280.349C258.14 282.75 262.146 284.531 266.432 285.542C274.416 283.87 282.265 280.813 289.437 276.391C305.338 266.651 317.963 250.266 321.765 227.61C321.416 226.886 321.083 226.156 320.755 225.432C318.073 219.297 316.578 212.964 316.953 207.047C317.015 206.011 317.125 205.021 317.302 204.011C316.708 203.151 316.114 202.297 315.541 201.396C313.828 198.688 312.265 195.787 310.901 192.709L310.791 193.037C307.844 202.604 302.458 209.948 295.818 215.292ZM281.036 194.75C278.594 192.709 275.625 191.255 272.302 190.307C275.495 193.167 276.969 198.229 276.812 204.255C281.562 206.474 285.677 209.026 288.932 211.839C288.25 203.948 285.39 198.38 281.036 194.75ZM270.213 182.985C276 184 281.166 186.151 285.323 189.604C290.14 193.63 293.552 199.328 295.026 206.959C299.135 202.755 302.411 197.521 304.416 191.099C305.604 187.297 306.37 183.776 306.791 180.521L306.656 179.995C302.943 178.875 298.76 178.432 294.344 178.479C287.104 178.542 279.255 179.953 271.776 181.974C271.229 182.302 270.698 182.656 270.213 182.985ZM239.666 185.802C241.515 185.25 243.359 184.766 245.187 184.349C261.088 170.339 281.5 162.818 303.094 159.959C302.458 158.99 301.755 158.089 300.963 157.229C297.333 153.25 292.25 150.438 286.224 148.568C277.713 145.927 267.38 145.224 256.557 145.86C244 146.61 235.401 151.427 229.724 158.219C235.948 162.839 239.974 169.99 239.818 179.974C239.776 182.016 239.734 183.953 239.666 185.802ZM215.031 204.078C208.26 208.146 201.948 212.854 196.583 217.932L197.526 219.011C201.791 215.886 207.599 213.25 214.156 211.578C215.099 211.334 216.068 211.115 217.036 210.917L216.594 209.662C216 207.948 215.474 206.078 215.031 204.078ZM222.203 200.099L221.172 200.646C221.541 202.672 222.005 204.563 222.531 206.276C223.281 204.12 224.182 202.052 225.239 200.162L222.203 200.099ZM220.62 193.391C224.646 191.365 228.755 189.584 232.87 188.068C232.979 185.537 233.068 182.834 233.114 179.906C233.224 172.604 230.364 167.328 225.896 163.828C223.943 167.37 222.531 171.219 221.609 175.177C220.182 181.271 219.849 187.584 220.245 193.391H220.62ZM192.312 212.943C197 208.521 202.276 204.406 207.927 200.714C200.036 201.485 192.666 203 186.396 205.307C188.401 208.016 190.38 210.568 192.312 212.943ZM179.318 247.974C179.182 249.823 177.578 251.209 175.729 251.078C173.885 250.948 172.5 249.339 172.609 247.495C173.354 237.287 179.052 226.995 187.583 217.693C185.146 214.745 182.661 211.531 180.13 208.078C172.015 212.479 166.932 218.792 166.958 227.302C167.068 257.344 179.864 272.761 196.271 278.964C201.969 281.12 208.125 282.198 214.375 282.438C199.838 272.193 189.984 254.906 190.073 230.25C190.073 228.005 191.015 225.74 192.666 223.584L191.875 222.709C184.682 230.714 179.932 239.422 179.318 247.974ZM304.984 540.203C303.844 541.656 301.729 541.917 300.281 540.776C298.828 539.63 298.562 537.521 299.708 536.068C306.021 527.953 311.828 521.287 316.927 515.438C323.26 508.156 328.495 502.156 331.708 496.896C337.693 487.11 336.26 479.151 320.885 467.141C318.224 471.537 315.172 474.771 312.047 476.354C299.291 482.823 291.177 478.183 287.437 470.771C285.916 467.776 285.193 464.302 285.234 460.985C285.281 457.573 286.094 454.25 287.698 451.636C291.041 446.136 297.224 443.63 305.802 448.865C310.531 451.745 314.729 454.448 318.448 457.021C320.844 451.151 322.625 443.979 323.286 436.349C324.187 425.683 322.844 414.183 317.765 404.172C314.094 396.917 308.416 390.406 300.193 385.521C274.943 370.547 242.39 371.36 212.88 372.084C204.255 372.308 195.901 372.505 187.979 372.328C158.203 371.625 135.13 365.531 130.359 335.047C125.364 335.203 119.536 335.068 112.765 334.542C106.802 334.078 101.416 332.542 96.5571 330.058C82.4998 322.906 73.0884 308.172 67.6092 290.422C62.2446 273.073 60.6196 252.792 62.0467 234.031C63.3436 217.099 67.13 201.328 72.9113 189.959L75.505 184.854C101.833 132.927 140.5 56.6356 218.594 76.646C225.765 78.495 231.859 80.6721 237.005 83.0679C242.437 75.745 252.974 70.995 266.036 68.1356C281.344 64.7919 300.37 63.9794 318.448 64.5731C342.771 65.3856 365.557 68.7971 375.432 72.094L388.146 76.3387C461.625 100.906 462.922 101.323 523.599 160.136C532.661 168.912 538.51 187.318 539.062 205.443C539.349 214.896 538.224 224.334 535.364 232.36C534.375 235.156 533.166 237.792 531.739 240.214C534.114 247.755 535.588 258.558 535.588 273.599C535.588 347.297 488.5 355.193 430.875 364.849C422.495 366.255 413.875 367.709 405.036 369.422L404.573 369.49C402.109 369.729 391.396 370.323 380.271 370.875C367.713 371.49 354.604 372.063 352.073 372.063C350.229 372.063 348.708 370.568 348.708 368.698C348.708 366.849 350.203 365.334 352.073 365.334C354.734 365.334 367.666 364.761 379.937 364.167C391.552 363.594 402.573 363 403.693 362.849H403.734C412.489 361.13 421.245 359.683 429.755 358.25C484.297 349.104 528.859 341.646 528.859 273.62C528.859 261.854 528.088 253.099 526.791 246.724C524.943 248.615 522.854 250.219 520.521 251.516C514.474 254.88 506.927 256.005 497.734 253.917L497.536 253.87C494 252.969 492.984 249.979 493.885 246.021V245.995C494.745 242.255 497.76 237.021 501.781 232.802C505.937 228.401 511.286 224.948 516.672 224.948C520.875 224.948 524.943 226.995 528.219 232.271C528.505 231.589 528.771 230.886 529.031 230.162C531.604 222.927 532.62 214.328 532.354 205.662C531.849 189.146 526.765 172.604 518.916 164.974C459.333 107.24 458.083 106.802 386.01 82.719L373.297 78.4742C363.906 75.3283 341.911 72.0731 318.224 71.2815C300.651 70.7085 282.224 71.5002 267.443 74.7137C256.401 77.1304 247.541 80.8283 243.01 86.2346C253.39 92.3492 258.802 99.4533 260.953 106.031C263.552 113.995 261.484 121.292 257.588 125.563C253.172 130.422 246.573 131.651 241.052 126.641C236.213 122.219 232.406 112.297 233 94.4637C233.068 92.5471 233.375 90.7242 233.927 89.0054C229.219 86.8544 223.588 84.8492 216.927 83.1356C144.036 64.4429 106.828 137.875 81.4894 187.87L78.8956 192.995C73.505 203.594 69.9634 218.459 68.7342 234.516C67.3696 252.526 68.9113 271.927 73.9894 288.443C78.9581 304.542 87.2967 317.808 99.5675 324.052C103.656 326.141 108.213 327.438 113.224 327.834C119.672 328.318 125.104 328.537 129.609 328.537C129.437 325.834 129.37 322.953 129.437 319.896C129.609 312.573 134.12 309.886 139.661 310.021H139.708C143.443 310.13 147.646 311.735 150.833 314.042C154.422 316.641 156.927 320.245 156.64 323.985C156.286 328.672 151.187 333.115 137.156 334.589C141.885 359.88 162.094 365.005 188.068 365.62C195.833 365.797 204.125 365.599 212.656 365.375C243.073 364.61 276.656 363.771 303.536 379.74C312.969 385.323 319.458 392.802 323.682 401.162C329.375 412.401 330.896 425.156 329.906 436.922C329.135 445.875 326.911 454.318 323.943 461.068C344.088 476.334 345.698 486.735 337.359 500.396C333.818 506.198 328.453 512.36 321.922 519.86C316.838 525.776 310.969 532.526 304.984 540.203Z" fill="#393346"/>
</g>
</g>
<defs>
<clipPath id="clip0_278_50">
<rect width="600" height="600" fill="white"/>
</clipPath>
</defs>
</svg>
