<svg xmlns="http://www.w3.org/2000/svg" version="1.1" xmlns:xlink="http://www.w3.org/1999/xlink" width="512" height="512" x="0" y="0" viewBox="0 0 64 64" style="enable-background:new 0 0 512 512" xml:space="preserve" class=""><g><linearGradient id="a" x1="5.952" x2="58.048" y1="32" y2="32" gradientUnits="userSpaceOnUse"><stop stop-opacity="1" stop-color="#86d4ff" offset="0"></stop><stop stop-opacity="1" stop-color="#a175ff" offset="1"></stop></linearGradient><path fill="url(#a)" d="M39.543 19.45a1.273 1.273 0 0 0 .39 1.31c.849.547 1.772-.473 2.74-.31a3.977 3.977 0 0 1 3.11 6.46 1.019 1.019 0 0 0-.19.92 1.033 1.033 0 0 0 .65.67 4.684 4.684 0 0 1 .55 8.71 3.826 3.826 0 0 0-6.35 2.9 1 1 0 0 0 2 0 1.852 1.852 0 0 1 1.85-1.85c1.572.036 2.348 1.876 2.36 3.25a3.984 3.984 0 0 1-3.98 3.98c-.96.157-1.912-.873-2.74-.31-.455.29-.438.828-.39 1.31a3.27 3.27 0 1 1-6.54 0V27.6a3.736 3.736 0 0 0 1.85.5 3.85 3.85 0 0 0 3.84-3.85 1 1 0 0 0-2 0 1.845 1.845 0 0 1-3.69 0v-4.8a3.27 3.27 0 0 1 6.54 0zm-10.39 18.39a3.835 3.835 0 0 1 1.85.49V19.45a3.27 3.27 0 0 0-6.54 0 1.273 1.273 0 0 1-.39 1.31c-.84.545-1.772-.47-2.74-.31a3.977 3.977 0 0 0-3.98 3.98c.012 1.358.783 3.21 2.36 3.24a1.852 1.852 0 0 0 1.85-1.85 1 1 0 1 1 2 0 3.856 3.856 0 0 1-6.35 2.9 4.71 4.71 0 0 0 .55 8.72 1.002 1.002 0 0 1 .46 1.58 3.985 3.985 0 0 0 3.11 6.47c.965.157 1.917-.876 2.74-.31.454.287.438.83.39 1.31a3.27 3.27 0 0 0 6.54 0v-4.81a1.845 1.845 0 0 0-3.69 0 1 1 0 0 1-2 0 3.841 3.841 0 0 1 3.84-3.84zm-21.35 3.48a1.011 1.011 0 0 0 .97-1.26C5.109 27 13.953 12.855 27.283 10.41a4.951 4.951 0 1 0-.19-2 24.721 24.721 0 0 0-3.24.84 26.068 26.068 0 0 0-17.02 31.32 1.011 1.011 0 0 0 .97.75zm39.21 11.4a24.107 24.107 0 0 1-30.03-.01 20.799 20.799 0 0 1-2.14-1.92 4.89 4.89 0 0 0 1.24-3.27 4.94 4.94 0 1 0-2.86 4.47 26.01 26.01 0 0 0 35.05 2.29 1.003 1.003 0 0 0-1.26-1.56zm9.09-8.92c5.772-13.589-1.82-30.17-15.95-34.55a1 1 0 0 0-.62 1.9c12.934 4.019 19.98 19.136 14.81 31.65a4.948 4.948 0 1 0 1.76 1z" opacity="1" data-original="url(#a)" class=""></path></g></svg>