<svg xmlns="http://www.w3.org/2000/svg" version="1.1" xmlns:xlink="http://www.w3.org/1999/xlink" width="512" height="512" x="0" y="0" viewBox="0 0 512 512" style="enable-background:new 0 0 512 512" xml:space="preserve" class=""><g><linearGradient id="a" x1="96.791" x2="429.612" y1="422.696" y2="89.874" gradientUnits="userSpaceOnUse"><stop stop-opacity="1" stop-color="#a175ff" offset="0.11196911196911197"></stop><stop stop-opacity="1" stop-color="#20beff" offset="1"></stop></linearGradient><path fill="url(#a)" fill-rule="evenodd" d="M244.891 307.601c0-11.883-4.816-22.642-12.603-30.429-7.787-7.786-18.545-12.603-30.428-12.603-8.13 0-15.71 2.229-22.159 6.105a43.242 43.242 0 0 0-15.861 16.742 7.997 7.997 0 0 1-14.125-7.499 59.035 59.035 0 0 1 11.764-15.347H58.433c-12.782 0-24.39 5.217-32.803 13.63C17.216 286.614 12 298.221 12 311.003v.18c0 10.051 3.481 19.315 9.293 26.642a43.56 43.56 0 0 0 15.385 12.262 58.291 58.291 0 0 1 4.607-13.482 59.55 59.55 0 0 1 15.335-19.638 7.987 7.987 0 0 1 10.25 12.25 43.495 43.495 0 0 0-11.21 14.326 42.568 42.568 0 0 0-4.275 17.316c.348 11.514 5.29 21.917 13.035 29.461 7.772 7.57 18.379 12.24 30.004 12.24a42.99 42.99 0 0 0 5.152-.304 43.313 43.313 0 0 0 4.601-.797 7.99 7.99 0 0 1 10.116 5.828c2.159 9.193 7.269 17.268 14.26 23.152a43.054 43.054 0 0 0 14.535 8.056 59.642 59.642 0 0 1-.259-5.554 58.912 58.912 0 0 1 3.796-20.813 59.026 59.026 0 0 1 10.907-18.162 7.993 7.993 0 0 1 12 10.562 43.014 43.014 0 0 0-7.97 13.225c-1.767 4.687-2.734 9.804-2.734 15.188 0 4.452.676 8.746 1.931 12.785.069.192.132.387.187.585a43.032 43.032 0 0 0 10.485 17.058c7.787 7.787 18.545 12.603 30.428 12.603 11.825 0 22.582-4.844 30.385-12.647s12.647-18.56 12.647-30.385zm127.147 120.378-.001-32.113a7.974 7.974 0 0 0-2.343-5.656l-49.266-49.267a7.977 7.977 0 0 0-5.698-2.385h-53.839v16h50.527l44.62 44.622v28.796a25.427 25.427 0 0 0-4.634 2.09c-12.088 6.979-16.229 22.434-9.25 34.521 6.979 12.088 22.434 16.229 34.521 9.25 12.088-6.979 16.229-22.434 9.25-34.521a25.17 25.17 0 0 0-13.887-11.337zm10.967-91.18h-27.491a7.979 7.979 0 0 1-5.656-2.344l-25.177-25.177h-63.789v-1.677c0-4.939-.608-9.737-1.751-14.323h68.853c2.23 0 4.247.913 5.698 2.385l25.135 25.135h24.179c3.347-10.036 12.815-17.272 23.976-17.272 13.958 0 25.272 11.314 25.272 25.272s-11.314 25.271-25.272 25.271c-11.162.001-20.63-7.234-23.977-17.27zM450.753 264H241.654l1.213-16h207.886c3.347-10.036 12.814-17.271 23.976-17.271C488.687 230.729 500 242.042 500 256s-11.314 25.271-25.271 25.271c-11.162 0-20.629-7.235-23.976-17.271zm-92.344-93.424a7.974 7.974 0 0 0-5.656 2.343l-29.802 29.803h-62.06v2.816c0 4.532-.512 8.945-1.479 13.184h66.852c2.23 0 4.247-.913 5.698-2.385l29.76-29.761h21.282c3.347 10.036 12.816 17.271 23.977 17.271 13.958 0 25.272-11.314 25.272-25.271s-11.314-25.271-25.272-25.271c-11.161 0-20.631 7.235-23.977 17.271h-24.595zm13.629-86.555v32.113a7.979 7.979 0 0 1-2.344 5.656l-49.266 49.268a7.977 7.977 0 0 1-5.698 2.385h-53.839v-16h50.527l44.62-44.622V84.026a25.427 25.427 0 0 1-4.634-2.09c-12.088-6.979-16.229-22.434-9.25-34.521 6.979-12.088 22.434-16.229 34.521-9.25s16.229 22.434 9.25 34.521a25.174 25.174 0 0 1-13.887 11.335zM160.946 66.826a7.66 7.66 0 0 1-.187.585 43.02 43.02 0 0 0-1.931 12.785c0 5.384.967 10.501 2.734 15.188a43.026 43.026 0 0 0 7.97 13.225 7.992 7.992 0 0 1-.719 11.281 7.992 7.992 0 0 1-11.281-.719 59.026 59.026 0 0 1-10.907-18.162 58.885 58.885 0 0 1-3.796-20.813c0-1.873.088-3.726.259-5.554a43.063 43.063 0 0 0-14.535 8.056c-6.991 5.884-12.101 13.959-14.26 23.152a7.99 7.99 0 0 1-10.116 5.828 43.53 43.53 0 0 0-4.601-.796 42.99 42.99 0 0 0-5.152-.304c-11.625 0-22.231 4.67-30.004 12.241-7.745 7.544-12.687 17.946-13.035 29.461a42.568 42.568 0 0 0 4.275 17.316 43.482 43.482 0 0 0 11.21 14.326 7.986 7.986 0 0 1-10.25 12.25 59.55 59.55 0 0 1-15.335-19.638 58.237 58.237 0 0 1-4.607-13.481 43.56 43.56 0 0 0-15.385 12.262C15.481 182.641 12 191.905 12 201.956v.18c0 12.782 5.217 24.389 13.63 32.803 8.414 8.414 20.021 13.63 32.803 13.63h103.045a59.062 59.062 0 0 1-11.764-15.347 7.996 7.996 0 1 1 14.125-7.499 43.234 43.234 0 0 0 15.861 16.742c6.448 3.876 14.028 6.105 22.159 6.105 11.883 0 22.642-4.817 30.428-12.603s12.603-18.545 12.603-30.429V80.197c0-11.825-4.844-22.582-12.647-30.385s-18.56-12.647-30.385-12.647c-11.883 0-22.642 4.816-30.428 12.603a43.03 43.03 0 0 0-10.484 17.058zm37.705 98.539a7.98 7.98 0 0 1-11 11.562 43.2 43.2 0 0 0-19.057-10.49 42.906 42.906 0 0 0-21.719.16c-8.178 2.191-15.166 6.587-20.494 12.374-5.53 6.006-9.286 13.48-10.746 21.521a7.97 7.97 0 0 1-15.687-2.812 59.263 59.263 0 0 1 14.683-29.521 58.771 58.771 0 0 1 28.119-16.999c10.09-2.704 20.269-2.62 29.719-.222a59.366 59.366 0 0 1 26.182 14.427zm-10.999 172.482a7.98 7.98 0 0 1 11 11.562 59.377 59.377 0 0 1-26.182 14.428c-9.449 2.398-19.628 2.481-29.719-.222a58.776 58.776 0 0 1-28.119-16.999 59.263 59.263 0 0 1-14.683-29.521 7.97 7.97 0 0 1 15.688-2.812c1.46 8.041 5.215 15.515 10.746 21.521 5.328 5.787 12.316 10.183 20.494 12.374a42.906 42.906 0 0 0 21.719.16 43.215 43.215 0 0 0 19.056-10.491z" clip-rule="evenodd" opacity="1" data-original="url(#a)" class=""></path></g></svg>