<svg width="199" height="200" viewBox="0 0 199 200" fill="none" xmlns="http://www.w3.org/2000/svg">
<path d="M91.2606 2.33321C89.2606 3.53321 86.194 7.39987 84.3273 11.2665C80.994 18.1999 73.1273 46.8665 70.4606 61.6665C67.794 76.1999 66.4606 77.3999 41.9273 86.1999C17.1273 94.9999 3.26062 101.8 0.993955 106.067C-1.27271 110.467 0.993955 115.533 7.12729 119.533C9.92729 121.4 21.5273 126.6 32.8606 131.133C44.194 135.533 53.6606 139.4 53.9273 139.533C54.0606 139.8 53.394 146.467 52.194 154.333C51.1273 162.333 50.194 173.8 50.194 179.8C50.194 189.667 50.594 191.267 53.6606 194.867C60.994 203.667 64.7273 200.733 86.194 170.467C93.9273 159.533 101.661 148.867 103.394 146.733L106.594 142.867L111.127 149.667C120.861 164.2 148.194 189.667 153.927 189.667C158.461 189.667 159.927 184.733 160.594 168.067C161.261 149.4 158.994 131 153.394 112.067C152.861 110.467 156.194 107.8 166.994 101.4C180.594 93.3999 198.194 78.7332 198.194 75.3999C198.194 72.3332 165.661 67.1332 140.194 66.1999C123.527 65.6665 122.861 65.5332 122.461 62.5999C122.194 60.9999 121.261 57.7999 120.194 55.6665C119.261 53.3999 118.061 48.9999 117.527 45.6665C116.461 38.5999 109.661 17.7999 105.927 10.5999C102.994 4.7332 98.8606 0.333206 96.594 0.333206C95.6606 0.46654 93.2606 1.26654 91.2606 2.33321ZM96.8606 11.2665C96.7273 12.9999 94.0606 17.2665 90.594 20.9999C84.3273 27.9332 83.6606 26.7332 88.4606 16.9999C92.594 8.86654 96.8606 5.93321 96.8606 11.2665ZM99.5273 18.0665C99.5273 18.1999 95.6606 22.3332 90.7273 26.9999C85.9273 31.7999 82.4606 34.5999 82.994 33.2665C84.4606 29.3999 99.5273 15.5332 99.5273 18.0665ZM102.194 28.0665C102.194 29.3999 98.7273 33.3999 94.594 37.1332C90.3273 40.7332 84.994 45.3999 82.594 47.5332C78.7273 50.7332 78.194 50.9999 78.194 48.8665C78.194 46.4665 98.8606 25.6665 101.261 25.6665C101.794 25.6665 102.194 26.7332 102.194 28.0665ZM104.861 38.1999C104.861 39.9332 78.594 62.9999 75.5273 64.0665C73.394 64.8665 73.9273 62.1999 76.594 59.1332C78.4606 56.8665 103.394 36.4665 104.594 36.3332C104.727 36.3332 104.861 37.1332 104.861 38.1999ZM108.594 50.0665C108.861 51.3999 101.927 57.7999 88.7273 68.4666C77.5273 77.3999 69.6606 82.9999 71.2606 80.9999C72.8606 78.9999 73.794 76.8665 73.5273 76.1999C73.1273 75.6665 76.8606 71.9332 81.9273 67.9332C86.994 63.9332 94.3273 57.5332 98.3273 53.7999C105.661 46.9999 107.927 46.1999 108.594 50.0665ZM111.527 58.1999C111.527 58.4665 111.794 59.6666 112.194 60.5999C112.727 61.9332 107.127 67.7999 96.594 77.2665C49.2606 119.533 42.194 125.667 40.594 125.667C39.5273 125.667 37.6606 124.867 36.4606 123.933C34.3273 122.467 34.994 121.4 43.1273 113.4C48.0606 108.467 54.3273 102.867 56.8606 100.733C59.394 98.7332 67.5273 91.7999 74.8606 85.5332C100.727 62.9999 111.527 54.9999 111.527 58.1999ZM116.327 71.9332C117.261 73.2665 118.194 74.7332 118.194 75.1332C118.194 75.5332 110.594 82.4665 101.394 90.4665C92.0606 98.4665 79.2606 110.467 72.994 117.133C63.794 126.867 60.594 129.533 56.594 130.2C53.794 130.733 51.394 130.467 50.8606 129.667C50.4606 129 50.594 128.333 51.394 128.333C52.194 128.333 66.194 115.133 82.7273 98.9999C99.2606 82.8665 113.127 69.6665 113.661 69.6665C114.194 69.6665 115.394 70.7332 116.327 71.9332ZM141.527 74.7332C140.727 75.3999 136.061 78.8665 130.861 82.3332C125.794 85.9332 110.461 99.7999 96.8606 113.133C74.7273 134.867 71.9273 137.267 69.1273 136.2C66.194 135.133 68.0606 133 95.394 105.667C116.194 84.8665 125.927 76.0665 129.127 75.1332C134.727 73.5332 143.127 73.2665 141.527 74.7332ZM158.861 74.8665C161.127 75.7999 160.194 76.8665 152.327 82.4665C127.127 100.333 92.3273 129.533 69.2606 152.067C59.9273 161 60.3273 159 69.794 148.2C92.4606 122.467 122.594 94.8665 143.394 80.4665C153.661 73.3999 154.461 73.1332 158.861 74.8665ZM176.861 79.6665C176.194 80.4665 169.394 86.3332 161.927 92.4665C154.461 98.5999 143.394 108.333 137.527 113.933C131.661 119.533 123.927 126.6 120.194 129.533L113.527 135.133L112.061 131.4C111.127 129.4 109.261 127.4 107.661 127C105.527 126.467 108.727 123.4 124.594 111C152.861 88.9999 171.927 76.3332 175.394 77.2665C177.527 77.7999 177.927 78.4665 176.861 79.6665ZM60.8606 90.5999C56.8606 94.0666 48.0606 102.2 41.2606 108.733C31.5273 118.333 28.594 120.467 26.3273 119.667C24.7273 119.267 23.5273 118.333 23.5273 117.8C23.5273 117.267 28.4606 113 34.594 108.333C40.594 103.533 48.594 96.8665 52.3273 93.3999C58.4606 87.6665 63.394 84.5999 66.8606 84.4665C67.6606 84.4665 64.8606 87.2666 60.8606 90.5999ZM30.7273 103.667C24.0606 109.933 17.6606 114.867 16.194 114.867C11.794 115 36.594 92.8665 41.394 92.4665C42.0606 92.3332 37.2606 97.3999 30.7273 103.667ZM15.394 106.6C12.994 109.4 10.8606 111.8 10.7273 112.067C10.3273 113.133 6.19395 110.467 6.19395 109C6.19395 107.667 15.9273 102.467 19.394 101.8C19.794 101.667 17.9273 103.933 15.394 106.6ZM134.994 138.733C128.461 146.2 122.594 152.733 122.061 153.133C121.394 153.4 119.794 151.533 118.327 148.733L115.794 143.533L130.594 130.467C145.394 117.533 145.527 117.533 146.194 121.267C146.861 124.467 145.394 126.867 134.994 138.733ZM98.8606 136.067C96.7273 140.467 92.594 145.133 85.5273 151C79.794 155.8 70.994 164.2 65.794 169.667C56.4606 179.667 55.794 178.2 64.594 167C70.3273 159.8 99.6606 129.667 100.994 129.667C101.527 129.667 100.594 132.467 98.8606 136.067ZM147.794 141C147.527 143 145.794 145.4 144.061 146.6C142.327 147.667 138.727 151.933 136.061 156.067C133.261 160.333 130.861 163.933 130.727 164.2C129.794 165.267 126.061 161.133 126.461 159.533C126.994 157.267 146.594 136.6 147.661 137.267C148.194 137.4 148.194 139.133 147.794 141ZM65.9273 145.8C63.5273 149 62.7273 149.4 62.4606 147.667C61.6606 144.2 63.2606 141.667 66.194 141.667C68.8606 141.667 68.8606 141.667 65.9273 145.8ZM146.994 161.267C146.594 164.067 146.194 168.6 146.194 171.267V176.333L140.194 173.4C136.861 171.8 134.194 169.933 134.194 169.267C134.194 167.8 145.127 156.333 146.727 156.333C147.394 156.333 147.527 158.6 146.994 161.267ZM73.9273 175.533C70.7273 179.533 67.5273 182.867 66.7273 182.867C65.9273 183 63.5273 184.2 61.394 185.8C59.2606 187.267 62.3273 184.067 68.0606 178.467C73.9273 172.867 78.8606 168.333 79.1273 168.333C79.394 168.333 77.1273 171.533 73.9273 175.533ZM152.861 178.733C152.861 180.467 151.261 181.667 149.927 180.867C148.594 180.067 149.794 177.667 151.661 177.667C152.327 177.667 152.861 178.2 152.861 178.733Z" fill="black"/>
</svg>
