<svg width="199" height="200" viewBox="0 0 199 200" fill="none" xmlns="http://www.w3.org/2000/svg">
<path d="M91.2602 2.33321C89.2602 3.53321 86.1935 7.39987 84.3269 11.2665C80.9935 18.1999 73.1269 46.8665 70.4602 61.6665C67.7935 76.1999 66.4602 77.3999 41.9269 86.1999C17.1269 94.9999 3.26019 101.8 0.993528 106.067C-1.27314 110.467 0.993527 115.533 7.12686 119.533C9.92686 121.4 21.5269 126.6 32.8602 131.133C44.1935 135.533 53.6602 139.4 53.9269 139.533C54.0602 139.8 53.3935 146.467 52.1935 154.333C51.1269 162.333 50.1935 173.8 50.1935 179.8C50.1935 189.667 50.5935 191.267 53.6602 194.867C60.9935 203.667 64.7269 200.733 86.1935 170.467C93.9269 159.533 101.66 148.867 103.394 146.733L106.594 142.867L111.127 149.667C120.86 164.2 148.194 189.667 153.927 189.667C158.46 189.667 159.927 184.733 160.594 168.067C161.26 149.4 158.994 131 153.394 112.067C152.86 110.467 156.194 107.8 166.994 101.4C180.594 93.3999 198.194 78.7332 198.194 75.3999C198.194 72.3332 165.66 67.1332 140.194 66.1999C123.527 65.6665 122.86 65.5332 122.46 62.5999C122.194 60.9999 121.26 57.7999 120.194 55.6665C119.26 53.3999 118.06 48.9999 117.527 45.6665C116.46 38.5999 109.66 17.7999 105.927 10.5999C102.994 4.7332 98.8602 0.333206 96.5935 0.333206C95.6602 0.46654 93.2602 1.26654 91.2602 2.33321ZM96.8602 11.2665C96.7269 12.9999 94.0602 17.2665 90.5935 20.9999C84.3269 27.9332 83.6602 26.7332 88.4602 16.9999C92.5935 8.86654 96.8602 5.93321 96.8602 11.2665ZM99.5269 18.0665C99.5269 18.1999 95.6602 22.3332 90.7269 26.9999C85.9269 31.7999 82.4602 34.5999 82.9935 33.2665C84.4602 29.3999 99.5269 15.5332 99.5269 18.0665ZM102.194 28.0665C102.194 29.3999 98.7269 33.3999 94.5935 37.1332C90.3269 40.7332 84.9935 45.3999 82.5935 47.5332C78.7269 50.7332 78.1935 50.9999 78.1935 48.8665C78.1935 46.4665 98.8602 25.6665 101.26 25.6665C101.794 25.6665 102.194 26.7332 102.194 28.0665ZM104.86 38.1999C104.86 39.9332 78.5935 62.9999 75.5269 64.0665C73.3935 64.8665 73.9269 62.1999 76.5935 59.1332C78.4602 56.8665 103.394 36.4665 104.594 36.3332C104.727 36.3332 104.86 37.1332 104.86 38.1999ZM108.594 50.0665C108.86 51.3999 101.927 57.7999 88.7269 68.4666C77.5269 77.3999 69.6602 82.9999 71.2602 80.9999C72.8602 78.9999 73.7935 76.8665 73.5269 76.1999C73.1269 75.6665 76.8602 71.9332 81.9269 67.9332C86.9935 63.9332 94.3269 57.5332 98.3269 53.7999C105.66 46.9999 107.927 46.1999 108.594 50.0665ZM111.527 58.1999C111.527 58.4665 111.794 59.6666 112.194 60.5999C112.727 61.9332 107.127 67.7999 96.5935 77.2665C49.2602 119.533 42.1935 125.667 40.5935 125.667C39.5269 125.667 37.6602 124.867 36.4602 123.933C34.3269 122.467 34.9935 121.4 43.1269 113.4C48.0602 108.467 54.3269 102.867 56.8602 100.733C59.3935 98.7332 67.5269 91.7999 74.8602 85.5332C100.727 62.9999 111.527 54.9999 111.527 58.1999ZM116.327 71.9332C117.26 73.2665 118.194 74.7332 118.194 75.1332C118.194 75.5332 110.594 82.4665 101.394 90.4665C92.0602 98.4665 79.2602 110.467 72.9935 117.133C63.7935 126.867 60.5935 129.533 56.5935 130.2C53.7935 130.733 51.3935 130.467 50.8602 129.667C50.4602 129 50.5935 128.333 51.3935 128.333C52.1935 128.333 66.1935 115.133 82.7269 98.9999C99.2602 82.8665 113.127 69.6665 113.66 69.6665C114.194 69.6665 115.394 70.7332 116.327 71.9332ZM141.527 74.7332C140.727 75.3999 136.06 78.8665 130.86 82.3332C125.794 85.9332 110.46 99.7999 96.8602 113.133C74.7269 134.867 71.9269 137.267 69.1269 136.2C66.1935 135.133 68.0602 133 95.3935 105.667C116.194 84.8665 125.927 76.0665 129.127 75.1332C134.727 73.5332 143.127 73.2665 141.527 74.7332ZM158.86 74.8665C161.127 75.7999 160.194 76.8665 152.327 82.4665C127.127 100.333 92.3269 129.533 69.2602 152.067C59.9269 161 60.3269 159 69.7935 148.2C92.4602 122.467 122.594 94.8665 143.394 80.4665C153.66 73.3999 154.46 73.1332 158.86 74.8665ZM176.86 79.6665C176.194 80.4665 169.394 86.3332 161.927 92.4665C154.46 98.5999 143.394 108.333 137.527 113.933C131.66 119.533 123.927 126.6 120.194 129.533L113.527 135.133L112.06 131.4C111.127 129.4 109.26 127.4 107.66 127C105.527 126.467 108.727 123.4 124.594 111C152.86 88.9999 171.927 76.3332 175.394 77.2665C177.527 77.7999 177.927 78.4665 176.86 79.6665ZM60.8602 90.5999C56.8602 94.0666 48.0602 102.2 41.2602 108.733C31.5269 118.333 28.5935 120.467 26.3269 119.667C24.7269 119.267 23.5269 118.333 23.5269 117.8C23.5269 117.267 28.4602 113 34.5935 108.333C40.5935 103.533 48.5935 96.8665 52.3269 93.3999C58.4602 87.6665 63.3935 84.5999 66.8602 84.4665C67.6602 84.4665 64.8602 87.2666 60.8602 90.5999ZM30.7269 103.667C24.0602 109.933 17.6602 114.867 16.1935 114.867C11.7935 115 36.5935 92.8665 41.3935 92.4665C42.0602 92.3332 37.2602 97.3999 30.7269 103.667ZM15.3935 106.6C12.9935 109.4 10.8602 111.8 10.7269 112.067C10.3269 113.133 6.19353 110.467 6.19353 109C6.19353 107.667 15.9269 102.467 19.3935 101.8C19.7935 101.667 17.9269 103.933 15.3935 106.6ZM134.994 138.733C128.46 146.2 122.594 152.733 122.06 153.133C121.394 153.4 119.794 151.533 118.327 148.733L115.794 143.533L130.594 130.467C145.394 117.533 145.527 117.533 146.194 121.267C146.86 124.467 145.394 126.867 134.994 138.733ZM98.8602 136.067C96.7269 140.467 92.5935 145.133 85.5269 151C79.7935 155.8 70.9935 164.2 65.7935 169.667C56.4602 179.667 55.7935 178.2 64.5935 167C70.3269 159.8 99.6602 129.667 100.994 129.667C101.527 129.667 100.594 132.467 98.8602 136.067ZM147.794 141C147.527 143 145.794 145.4 144.06 146.6C142.327 147.667 138.727 151.933 136.06 156.067C133.26 160.333 130.86 163.933 130.727 164.2C129.794 165.267 126.06 161.133 126.46 159.533C126.994 157.267 146.594 136.6 147.66 137.267C148.194 137.4 148.194 139.133 147.794 141ZM65.9269 145.8C63.5269 149 62.7269 149.4 62.4602 147.667C61.6602 144.2 63.2602 141.667 66.1935 141.667C68.8602 141.667 68.8602 141.667 65.9269 145.8ZM146.994 161.267C146.594 164.067 146.194 168.6 146.194 171.267V176.333L140.194 173.4C136.86 171.8 134.194 169.933 134.194 169.267C134.194 167.8 145.127 156.333 146.727 156.333C147.394 156.333 147.527 158.6 146.994 161.267ZM73.9269 175.533C70.7269 179.533 67.5269 182.867 66.7269 182.867C65.9269 183 63.5269 184.2 61.3935 185.8C59.2602 187.267 62.3269 184.067 68.0602 178.467C73.9269 172.867 78.8602 168.333 79.1269 168.333C79.3935 168.333 77.1269 171.533 73.9269 175.533ZM152.86 178.733C152.86 180.467 151.26 181.667 149.927 180.867C148.594 180.067 149.794 177.667 151.66 177.667C152.327 177.667 152.86 178.2 152.86 178.733Z" fill="#E0E0E0"/>
</svg>
